<?xml version="1.0" encoding="UTF-8"?>
<svg version="1.1" xmlns="http://www.w3.org/2000/svg" width="1024" height="1024">
<path d="M0 0 C0.33 0.99 0.66 1.98 1 3 C-0.8125 6.1875 -0.8125 6.1875 -3 9 C-3.66 9 -4.32 9 -5 9 C-5.11085938 9.57492188 -5.22171875 10.14984375 -5.3359375 10.7421875 C-6.07929408 13.26959986 -7.13056787 14.95927215 -8.625 17.125 C-9.43324219 18.30449219 -9.43324219 18.30449219 -10.2578125 19.5078125 C-12.59320795 22.84857999 -14.92969932 26.18851489 -17.2734375 29.5234375 C-20.83916155 34.63807335 -24.28736527 39.81948579 -27.5625 45.125 C-29.50939546 48.27383736 -31.58825678 51.28546135 -33.7890625 54.26171875 C-35.30916442 56.44380054 -36.64204376 58.71344133 -38 61 C-39.29041842 63.08410673 -40.58217076 65.16738791 -41.875 67.25 C-45.59764473 73.2791581 -49.06396013 79.40904386 -52.42578125 85.64453125 C-55.38566892 91.11305756 -58.46397703 96.47428296 -61.69140625 101.7890625 C-63.27237886 104.46019831 -64.63709765 107.21224519 -66 110 C-66.68249175 111.16960351 -67.37026685 112.33613548 -68.0625 113.5 C-69.40833386 115.8042307 -70.21726673 117.66458058 -71.0625 120.25 C-72 123 -72 123 -73.421875 124.34765625 C-75.42368318 126.44360887 -76.16952537 128.48460184 -77.1875 131.1875 C-77.53167969 132.08855469 -77.87585938 132.98960937 -78.23046875 133.91796875 C-78.48441406 134.60503906 -78.73835937 135.29210937 -79 136 C-79.66 136 -80.32 136 -81 136 C-81.19335938 136.66386719 -81.38671875 137.32773437 -81.5859375 138.01171875 C-84.17223199 146.78207381 -84.17223199 146.78207381 -86 151 C-86.66 151 -87.32 151 -88 151 C-88.268125 152.155 -88.53625 153.31 -88.8125 154.5 C-89.88385122 158.81623514 -91.37472237 162.86292967 -93 167 C-93.66 167 -94.32 167 -95 167 C-95.103125 167.845625 -95.20625 168.69125 -95.3125 169.5625 C-96.07067192 173.35335958 -97.42651166 176.47538611 -99 180 C-99.67591479 181.9968935 -100.34135904 183.99734263 -101 186 C-102.24968521 189.52475315 -103.51562443 193.04344354 -104.78125 196.5625 C-108.43838692 206.87750158 -111.81699492 217.26689169 -114 228 C-114.66 228 -115.32 228 -116 228 C-116.12503906 229.09054687 -116.25007812 230.18109375 -116.37890625 231.3046875 C-117.04380082 236.61215877 -117.98242643 241.8632192 -118.9375 247.125 C-119.10701172 248.08792969 -119.27652344 249.05085937 -119.45117188 250.04296875 C-120.13348703 253.81515974 -120.79266133 257.40847498 -122.0625 261.03125 C-123.44622052 265.41303165 -123.69890746 269.80928285 -124.0625 274.375 C-124.14483887 275.35307617 -124.22717773 276.33115234 -124.31201172 277.33886719 C-124.55073178 280.22525273 -124.77727888 283.11234098 -125 286 C-125.06074707 286.75764648 -125.12149414 287.51529297 -125.18408203 288.29589844 C-127.02663633 311.62758596 -125.46118019 334.75956906 -123 358 C-122.34 358 -121.68 358 -121 358 C-120.86424561 358.57967529 -120.72849121 359.15935059 -120.58862305 359.7565918 C-119.96373115 362.40239943 -119.32575104 365.04488465 -118.6875 367.6875 C-118.47416016 368.59951172 -118.26082031 369.51152344 -118.04101562 370.45117188 C-116.89325625 375.16212454 -115.70808896 378.92346183 -113 383 C-112.22374033 384.87704262 -111.49385489 386.77396307 -110.8125 388.6875 C-110.46832031 389.64011719 -110.12414062 390.59273437 -109.76953125 391.57421875 C-109 394 -109 394 -109 396 C-108.34 396 -107.68 396 -107 396 C-106.72027344 396.61746094 -106.44054687 397.23492188 -106.15234375 397.87109375 C-103.4761533 403.52465365 -100.46257678 408.28721781 -96.453125 413.08984375 C-95 415 -95 415 -94 418 C-92.3603279 419.36639342 -90.68889872 420.6949419 -89 422 C-86.47239216 424.46441764 -84.02469563 426.97335471 -81.625 429.5625 C-79.49410519 431.54118803 -77.92435636 432.70506881 -75.4375 434.0625 C-72 436 -72 436 -70 438.0625 C-67.2725141 440.70475197 -64.53368424 441.64089068 -61 443 C-61 443.66 -61 444.32 -61 445 C-59.7625 445.37125 -58.525 445.7425 -57.25 446.125 C-53.31041286 447.42376499 -49.74119117 449.08689023 -46.0625 451 C-40.83681942 453.69669268 -35.69360964 455.56400111 -30 457 C-30 457.66 -30 458.32 -30 459 C-29.39994141 459.10376953 -28.79988281 459.20753906 -28.18164062 459.31445312 C-20.79417995 460.6799621 -13.92565821 462.93761845 -6.85546875 465.43359375 C-1.70803682 467.21041099 3.29818657 468.51000139 8.65283203 469.48657227 C10.88405399 469.97463756 12.84773026 470.6404934 14.9609375 471.49609375 C19.714219 473.39525771 24.59795123 474.19490565 29.625 475.0625 C31.45122435 475.3827323 33.27677195 475.70685217 35.1015625 476.03515625 C35.89900879 476.1731665 36.69645508 476.31117676 37.51806641 476.45336914 C40 477 40 477 42.86987305 477.99560547 C46.25935112 479.08322054 49.44994139 479.59066283 52.98046875 480.03515625 C53.63396805 480.11873886 54.28746735 480.20232147 54.96076965 480.28843689 C56.33782832 480.46343675 57.71525569 480.63555719 59.09301758 480.80493164 C61.165054 481.05973971 63.23587453 481.32297648 65.30664062 481.58789062 C72.21227708 482.46174276 79.10896654 483.2411632 86.05200195 483.75170898 C88 484 88 484 89 485 C107.9147154 487.53657607 129.0852846 487.53657607 148 485 C148.33 484.67 148.66 484.34 149 484 C150.86595365 483.72430921 152.74071631 483.50783323 154.6171875 483.31640625 C156.36515625 483.13174805 156.36515625 483.13174805 158.1484375 482.94335938 C159.37820313 482.81767578 160.60796875 482.69199219 161.875 482.5625 C169.52187585 481.78043315 177.06731786 480.92947737 184.60205078 479.38256836 C187.10689596 478.98294584 189.46782471 478.93484824 192 479 C192 478.34 192 477.68 192 477 C195.60295699 476.16137685 199.20755065 475.33001323 202.8125 474.5 C203.83666016 474.26152344 204.86082031 474.02304687 205.91601562 473.77734375 C206.89892578 473.55175781 207.88183594 473.32617188 208.89453125 473.09375 C210.25348511 472.77954102 210.25348511 472.77954102 211.63989258 472.45898438 C214 472 214 472 217 472 C217 471.34 217 470.68 217 470 C218.12277344 469.68546875 219.24554687 469.3709375 220.40234375 469.046875 C228.19811169 466.83058485 235.70556993 464.5816962 243 461 C248.11331421 458.67490703 253.26542911 456.44103242 258.4375 454.25 C259.44683594 453.82203125 260.45617187 453.3940625 261.49609375 452.953125 C264 452 264 452 266 452 C266 451.34 266 450.68 266 450 C267.95649397 449.16235732 269.91525556 448.33000941 271.875 447.5 C272.96554687 447.0359375 274.05609375 446.571875 275.1796875 446.09375 C278 445 278 445 280 445 C280 444.34 280 443.68 280 443 C281.62249941 442.16180842 283.24808497 441.3295884 284.875 440.5 C285.77992188 440.0359375 286.68484375 439.571875 287.6171875 439.09375 C290 438 290 438 292 438 C292 437.34 292 436.68 292 436 C293.03060547 435.51080078 293.03060547 435.51080078 294.08203125 435.01171875 C294.98308594 434.57472656 295.88414062 434.13773438 296.8125 433.6875 C298.15248047 433.04361328 298.15248047 433.04361328 299.51953125 432.38671875 C301.97369469 431.16238164 301.97369469 431.16238164 303.5 429.5 C305.49275483 427.50724517 307.65500577 426.52941281 310.1875 425.3125 C311.08855469 424.87550781 311.98960937 424.43851563 312.91796875 423.98828125 C313.94857422 423.49908203 313.94857422 423.49908203 315 423 C314.4987676 427.24573327 313.35632655 429.103876 310.25 432 C309.528125 432.68320312 308.80625 433.36640625 308.0625 434.0703125 C307.381875 434.70710938 306.70125 435.34390625 306 436 C304.63875 437.423125 304.63875 437.423125 303.25 438.875 C301 441 301 441 298.8125 442.0625 C296.44477298 443.28718639 296.14410728 444.64027874 295 447 C291.57142857 450 291.57142857 450 289 450 C288.69255859 450.83917969 288.69255859 450.83917969 288.37890625 451.6953125 C286.49189274 454.84924442 283.84523053 456.72535931 280.9375 458.875 C280.35693848 459.31336182 279.77637695 459.75172363 279.17822266 460.20336914 C275.15787345 463.21391232 271.05138219 466.0618622 266.8046875 468.74609375 C264.96414185 469.94531095 264.96414185 469.94531095 263.48046875 471.5234375 C260.79774819 474.19907964 256.83354074 477 253 477 C253 477.66 253 478.32 253 479 C251.37750059 479.83819158 249.75191503 480.6704116 248.125 481.5 C247.22007812 481.9640625 246.31515625 482.428125 245.3828125 482.90625 C243 484 243 484 241 484 C241 484.66 241 485.32 241 486 C239.04350603 486.83764268 237.08474444 487.66999059 235.125 488.5 C234.03445313 488.9640625 232.94390625 489.428125 231.8203125 489.90625 C229 491 229 491 227 491 C227 491.66 227 492.32 227 493 C224.8765984 493.83739781 222.7512272 494.66980283 220.625 495.5 C219.44164062 495.9640625 218.25828125 496.428125 217.0390625 496.90625 C214 498 214 498 212 498 C212 498.66 212 499.32 212 500 C211.47156494 500.16604736 210.94312988 500.33209473 210.39868164 500.50317383 C207.95303738 501.27215544 205.50776792 502.04232254 203.0625 502.8125 C201.81629883 503.20405273 201.81629883 503.20405273 200.54492188 503.60351562 C196.44678475 504.89514639 192.36118381 506.21055688 188.29296875 507.59375 C184.64772057 508.81498234 180.99882681 509.82344114 177.25 510.6875 C176.18265625 510.93886719 175.1153125 511.19023438 174.015625 511.44921875 C171.25683097 511.95309175 168.79435456 512.10866934 166 512 C166 512.66 166 513.32 166 514 C122.64298114 520.79044157 81.02106637 520.97401213 37.5625 515.4375 C36.65886719 515.32301514 35.75523437 515.20853027 34.82421875 515.09057617 C30.31061827 514.47057128 26.33252998 513.44736645 22 512 C20.06186715 511.53900852 18.11594695 511.10970959 16.1640625 510.7109375 C15.10058594 510.49179687 14.03710938 510.27265625 12.94140625 510.046875 C11.84699219 509.82515625 10.75257813 509.6034375 9.625 509.375 C8.50738281 509.14554688 7.38976562 508.91609375 6.23828125 508.6796875 C3.49283911 508.11651988 0.74675325 507.55673132 -2 507 C-2 506.34 -2 505.68 -2 505 C-3.14726563 504.87238281 -4.29453125 504.74476563 -5.4765625 504.61328125 C-9.8464854 504.0643974 -14.09153145 503.20168353 -18.375 502.1875 C-19.12031982 502.01226807 -19.86563965 501.83703613 -20.63354492 501.65649414 C-25.48546716 500.47424365 -29.9929095 498.95106891 -34.57421875 496.94921875 C-39.23128554 495.12688827 -44.13145792 494.10420542 -49 493 C-49 492.34 -49 491.68 -49 491 C-50.10859375 490.72285156 -51.2171875 490.44570313 -52.359375 490.16015625 C-57.90625 488.7734375 -63.453125 487.38671875 -69 486 C-69 485.34 -69 484.68 -69 484 C-69.79664063 483.80664062 -70.59328125 483.61328125 -71.4140625 483.4140625 C-81.93848858 480.82776801 -81.93848858 480.82776801 -87 479 C-87 478.34 -87 477.68 -87 477 C-87.81791016 476.83564453 -87.81791016 476.83564453 -88.65234375 476.66796875 C-94.25535065 475.48990063 -99.6054387 473.912965 -105 472 C-105 471.34 -105 470.68 -105 470 C-105.81791016 469.83564453 -105.81791016 469.83564453 -106.65234375 469.66796875 C-112.25535065 468.48990063 -117.6054387 466.912965 -123 465 C-123 464.34 -123 463.68 -123 463 C-123.56847656 462.87882812 -124.13695312 462.75765625 -124.72265625 462.6328125 C-129.54245464 461.58677946 -134.2732934 460.40795516 -139 459 C-139 458.34 -139 457.68 -139 457 C-139.86753906 456.87367188 -140.73507812 456.74734375 -141.62890625 456.6171875 C-144.87167343 456.02349432 -147.81862901 455.18238333 -150.9375 454.125 C-151.91589844 453.79757812 -152.89429688 453.47015625 -153.90234375 453.1328125 C-156.0916725 452.33217525 -158.25087411 451.44678432 -160.3828125 450.50390625 C-164.19636251 448.918359 -167.94350535 447.81981759 -171.9375 446.8125 C-172.62134766 446.63525391 -173.30519531 446.45800781 -174.00976562 446.27539062 C-175.6719081 445.84532579 -177.33577788 445.42194563 -179 445 C-179 444.34 -179 443.68 -179 443 C-179.87398438 442.83564453 -179.87398438 442.83564453 -180.765625 442.66796875 C-187.57527865 441.35100743 -194.28451441 439.73079526 -201 438 C-201 437.34 -201 436.68 -201 436 C-202.11375 435.87753906 -203.2275 435.75507812 -204.375 435.62890625 C-209.31304879 435.01165015 -214.13999569 433.99386038 -219 432.9375 C-219.87011719 432.75123047 -220.74023438 432.56496094 -221.63671875 432.37304688 C-223.75846252 431.9183875 -225.87932571 431.45962195 -228 431 C-228 430.34 -228 429.68 -228 429 C-229.24652344 428.87753906 -230.49304688 428.75507812 -231.77734375 428.62890625 C-237.42408101 428.001491 -242.98048328 426.98297368 -248.5625 425.9375 C-249.57119141 425.75123047 -250.57988281 425.56496094 -251.61914062 425.37304688 C-254.07996816 424.91820197 -256.54021974 424.46046882 -259 424 C-259 423.34 -259 422.68 -259 422 C-259.63711914 421.95174072 -260.27423828 421.90348145 -260.93066406 421.85375977 C-270.88973633 421.06386091 -280.81678712 419.99606376 -290.75 418.9375 C-292.52602871 418.74922669 -294.30207029 418.56107474 -296.078125 418.37304688 C-300.38556618 417.91676232 -304.69283036 417.45884047 -309 417 C-309 416.34 -309 415.68 -309 415 C-310.00933594 415.01160156 -311.01867187 415.02320313 -312.05859375 415.03515625 C-321.07709591 415.10327665 -330.05288917 414.90898382 -339.0625 414.5 C-357.20843511 413.7069544 -375.27089926 413.8284314 -393.41381836 414.6418457 C-400.61780823 414.96342653 -407.78792996 415.129043 -415 415 C-415 415.66 -415 416.32 -415 417 C-420.7065146 417.55420628 -426.41330848 418.10541682 -432.12036133 418.65405273 C-434.05500787 418.84043765 -435.98958066 419.02759 -437.92407227 419.21557617 C-449.27510349 420.31804618 -460.61390283 421.33661393 -472 422 C-472 422.66 -472 423.32 -472 424 C-472.56154282 424.07294785 -473.12308563 424.14589569 -473.7016449 424.22105408 C-479.52548609 424.97845059 -485.34853146 425.74175047 -491.17114258 426.50854492 C-493.34672359 426.79425356 -495.52250555 427.07843618 -497.69848633 427.36108398 C-500.81905858 427.76669445 -503.93887628 428.17771704 -507.05859375 428.58984375 C-508.03775253 428.71592514 -509.01691132 428.84200653 -510.02574158 428.97190857 C-510.92659988 429.09195755 -511.82745819 429.21200653 -512.75561523 429.33569336 C-513.55281479 429.4400621 -514.35001434 429.54443085 -515.17137146 429.65196228 C-517.01217125 429.82469494 -517.01217125 429.82469494 -518 431 C-521.01562878 431.44791294 -524.01964929 431.83879106 -527.046875 432.19140625 C-527.96905823 432.30097153 -528.89124146 432.4105368 -529.84136963 432.52342224 C-531.80494988 432.75510882 -533.76880785 432.9844515 -535.73291016 433.21166992 C-538.69673377 433.55630615 -541.65886779 433.91341038 -544.62109375 434.27148438 C-554.45863904 435.43399567 -564.07966654 436.4123682 -574 436 C-574 436.66 -574 437.32 -574 438 C-586.87 438 -599.74 438 -613 438 C-613 437.34 -613 436.68 -613 436 C-614.051875 436.0825 -615.10375 436.165 -616.1875 436.25 C-624.16703032 436.22160309 -634.02283026 433.70351782 -639.890625 428.0390625 C-642.37365347 423.47518623 -641.70607277 417.99249686 -641 413 C-639.78707976 409.43140823 -638.26033721 406.98364512 -636 404 C-635.55527344 403.08476563 -635.11054687 402.16953125 -634.65234375 401.2265625 C-633.00143732 398.00280667 -631.145569 395.22608517 -629 392.3125 C-627.9790625 390.91451172 -627.9790625 390.91451172 -626.9375 389.48828125 C-625.37894265 387.48666627 -623.79876028 385.77191311 -622 384 C-621.690625 383.360625 -621.38125 382.72125 -621.0625 382.0625 C-619.74611464 379.5071637 -618.09010115 377.9706668 -616 376 C-613.39496422 373.46176001 -610.96892207 370.96136257 -608.6875 368.125 C-606.06750421 364.90614803 -603.02875526 362.28892711 -599.8671875 359.61328125 C-597.98629915 358.04233838 -597.98629915 358.04233838 -596.3828125 356.29296875 C-595 355 -595 355 -593 355 C-592.76410156 354.41863281 -592.52820313 353.83726562 -592.28515625 353.23828125 C-590.71164136 350.49778268 -588.94010665 349.11047318 -586.4375 347.1875 C-585.54160156 346.49269531 -584.64570312 345.79789063 -583.72265625 345.08203125 C-582.37494141 344.05142578 -582.37494141 344.05142578 -581 343 C-579.45793469 341.79217545 -577.9162445 340.58387177 -576.375 339.375 C-574.91712947 338.24940032 -573.45880621 337.12438674 -572 336 C-571.28585937 335.43925781 -570.57171875 334.87851562 -569.8359375 334.30078125 C-566.35247826 331.60664517 -563.26373878 329.33241837 -559 328 C-559 327.34 -559 326.68 -559 326 C-557.54462432 325.16151196 -556.08559627 324.32936066 -554.625 323.5 C-553.40683594 322.80390625 -553.40683594 322.80390625 -552.1640625 322.09375 C-550 321 -550 321 -548 321 C-548 320.34 -548 319.68 -548 319 C-545.15311687 317.57655843 -542.30594028 316.15376028 -539.45703125 314.734375 C-537.17727543 313.5906331 -534.90362749 312.43462324 -532.63671875 311.265625 C-531.58097656 310.72421875 -530.52523437 310.1828125 -529.4375 309.625 C-528.46683594 309.12226562 -527.49617188 308.61953125 -526.49609375 308.1015625 C-524 307 -524 307 -521 307 C-521 306.34 -521 305.68 -521 305 C-518.89828133 304.1605118 -516.79353375 303.32860344 -514.6875 302.5 C-513.51574219 302.0359375 -512.34398437 301.571875 -511.13671875 301.09375 C-508 300 -508 300 -505 300 C-505 299.34 -505 298.68 -505 298 C-502.39741676 297.16142312 -499.79314353 296.32896656 -497.1875 295.5 C-496.08051758 295.14228516 -496.08051758 295.14228516 -494.95117188 294.77734375 C-491.86744804 293.80059864 -489.25504191 293 -486 293 C-486 292.34 -486 291.68 -486 291 C-482.75195713 290.15890901 -479.50127696 289.32849344 -476.25 288.5 C-474.86941406 288.14228516 -474.86941406 288.14228516 -473.4609375 287.77734375 C-472.57148438 287.55175781 -471.68203125 287.32617188 -470.765625 287.09375 C-469.94868164 286.88427734 -469.13173828 286.67480469 -468.29003906 286.45898438 C-466 286 -466 286 -462 286 C-462 285.34 -462 284.68 -462 284 C-460.97527588 283.823479 -459.95055176 283.64695801 -458.89477539 283.46508789 C-455.10533468 282.81123101 -451.31681867 282.1521485 -447.52856445 281.49145508 C-445.88656092 281.20583977 -444.24430767 280.9216563 -442.60180664 280.63891602 C-440.24559005 280.23306393 -437.89030949 279.82212819 -435.53515625 279.41015625 C-434.79660904 279.28407486 -434.05806183 279.15799347 -433.2971344 279.02809143 C-429.85613682 278.66537727 -429.85613682 278.66537727 -427 277 C-396.78888136 271.35931646 -364.59098766 273.70599264 -334 274 C-334.76167763 278.86490871 -336.75965712 281.42954176 -340 285 C-341.0018612 286.18593018 -342.00182798 287.37346305 -343 288.5625 C-345.53440443 291.51930517 -348.24613957 294.24613957 -351 297 C-351.66 297.825 -352.32 298.65 -353 299.5 C-355.91880324 303.14850404 -359.05234116 306.26771817 -362.75 309.125 C-365.25052455 310.87431597 -365.25052455 310.87431597 -366 314 C-367.97946592 315.36363208 -369.9819245 316.69418644 -372 318 C-373.35573748 319.31054623 -374.68612831 320.64748503 -376 322 C-379.60341192 325.31607089 -383.1958124 328.580826 -387.3125 331.25 C-389.60146934 332.74049166 -391.10319649 334.09373612 -393 336 C-396.74352103 339.05178345 -400.58119397 341.8517472 -404.8125 344.1875 C-407.87461356 345.73329395 -407.87461356 345.73329395 -409.44921875 347.48828125 C-411.6813934 349.66422984 -414.25115919 350.65961781 -417.0625 351.9375 C-419.11287911 353.06190144 -420.35978776 354.35126718 -422 356 C-423.97265625 357.16796875 -423.97265625 357.16796875 -426.0625 358.1875 C-426.75472656 358.53167969 -427.44695312 358.87585938 -428.16015625 359.23046875 C-430 360 -430 360 -432 360 C-432 360.66 -432 361.32 -432 362 C-433.95649397 362.83764268 -435.91525556 363.66999059 -437.875 364.5 C-438.96554687 364.9640625 -440.05609375 365.428125 -441.1796875 365.90625 C-444 367 -444 367 -446 367 C-446 367.66 -446 368.32 -446 369 C-448.64 369.99 -451.28 370.98 -454 372 C-446.18981419 369.99660598 -438.5068315 367.97684698 -431 365 C-429.40012233 364.42541461 -427.79576591 363.86317025 -426.1875 363.3125 C-425.45917969 363.06113281 -424.73085938 362.80976562 -423.98046875 362.55078125 C-422 362 -422 362 -419 362 C-419 361.34 -419 360.68 -419 360 C-416.8765984 359.16260219 -414.7512272 358.33019717 -412.625 357.5 C-410.84996094 356.80390625 -410.84996094 356.80390625 -409.0390625 356.09375 C-406 355 -406 355 -404 355 C-404 354.34 -404 353.68 -404 353 C-402.21046815 352.16209211 -400.41830305 351.32980604 -398.625 350.5 C-397.62726563 350.0359375 -396.62953125 349.571875 -395.6015625 349.09375 C-393 348 -393 348 -391 348 C-391 347.34 -391 346.68 -391 346 C-390.38253906 345.70867187 -389.76507813 345.41734375 -389.12890625 345.1171875 C-383.70725317 342.49300838 -378.72758761 339.62116479 -373.8125 336.13671875 C-372 335 -372 335 -370 335 C-369.67 334.01 -369.34 333.02 -369 332 C-367.27063131 330.98848246 -365.53709774 329.98224462 -363.76953125 329.0390625 C-361.47256474 327.69029188 -359.84543884 325.90695347 -358 324 C-357.195625 323.525625 -356.39125 323.05125 -355.5625 322.5625 C-352.81286977 321.02392813 -352.81286977 321.02392813 -350.3125 318.3125 C-349.549375 317.549375 -348.78625 316.78625 -348 316 C-347.34 316 -346.68 316 -346 316 C-345.690625 315.1646875 -345.690625 315.1646875 -345.375 314.3125 C-343.82878474 311.71204706 -341.93082704 310.15247074 -339.578125 308.28515625 C-337.21236764 306.35858652 -335.12817818 304.18274685 -333 302 C-332.175 301.195625 -331.35 300.39125 -330.5 299.5625 C-327.91719933 296.99059292 -327.91719933 296.99059292 -325.5 293.9375 C-323 291 -323 291 -320.609375 289.13671875 C-317.89760862 286.91615556 -315.91495733 284.62529764 -313.75 281.875 C-310.67308141 278.02756757 -307.51969321 274.31613214 -304.1875 270.6875 C-301.06912674 267.27084756 -298.47099056 263.89656203 -296 260 C-295.52570557 259.5258667 -295.05141113 259.0517334 -294.56274414 258.56323242 C-292.94917301 256.94915713 -291.68605339 255.2890695 -290.37109375 253.42578125 C-289.89349609 252.75869141 -289.41589844 252.09160156 -288.92382812 251.40429688 C-287.92609682 250.00013101 -286.93134097 248.59384657 -285.93945312 247.18554688 C-285.46314453 246.52232422 -284.98683594 245.85910156 -284.49609375 245.17578125 C-284.06482178 244.56645752 -283.6335498 243.95713379 -283.18920898 243.3293457 C-282.79677002 242.89066162 -282.40433105 242.45197754 -282 242 C-281.34 242 -280.68 242 -280 242 C-279.731875 241.071875 -279.46375 240.14375 -279.1875 239.1875 C-278.03084794 236.08280237 -277.33341464 235.14674147 -275 233 C-274.505 232.175 -274.01 231.35 -273.5 230.5 C-272.14881739 228.24802898 -270.83113623 226.83113623 -269 225 C-267.82425289 222.90010348 -267.82425289 222.90010348 -267 221 C-266.34 221 -265.68 221 -265 221 C-264.566875 220.13375 -264.566875 220.13375 -264.125 219.25 C-263.08333333 217.16666667 -262.04166667 215.08333333 -261 213 C-260.34 213 -259.68 213 -259 213 C-258.7421875 212.27941406 -258.484375 211.55882812 -258.21875 210.81640625 C-256.93906883 207.85919431 -255.39635502 205.53695275 -253.5 202.9375 C-251.38027914 200.02288381 -249.60260931 197.21909403 -248 194 C-246.66666667 192.66666667 -245.33333333 191.33333333 -244 190 C-242.99431758 188.33675599 -241.99335201 186.67063747 -241 185 C-240.34 184.67 -239.68 184.34 -239 184 C-238.05671457 182.34925049 -237.11703934 180.69629256 -236.19921875 179.03125 C-233.39677558 174.28444071 -229.87927017 170.00238062 -226.3125 165.8125 C-224.22812043 163.27744376 -222.67272517 160.81017829 -221 158 C-219.49294815 155.96751656 -217.95630284 153.96166141 -216.40234375 151.96484375 C-214.94508837 150.03479295 -214.94508837 150.03479295 -213.9375 147.84375 C-213 146 -213 146 -211.0625 144.5625 C-208.56537093 142.67073556 -207.54816366 140.7092864 -206 138 C-202.39826161 133.28048072 -198.45819588 128.82558929 -194.5625 124.34765625 C-190.88956375 120.10581411 -187.37970894 115.74711578 -183.8828125 111.359375 C-180.1277108 106.65381187 -176.2616048 102.2616048 -172 98 C-170.65939518 96.50649524 -169.326677 95.0058904 -168 93.5 C-163.62033443 88.54514383 -159.16455523 84.13164419 -154 80 C-151.46140318 77.58523717 -149.17637377 75.23326853 -147.0625 72.4375 C-144.67392391 69.61463735 -142.08769789 68.01645577 -139 66 C-137.31183067 64.35511706 -135.64646685 62.68662458 -134 61 C-123.95454545 52 -123.95454545 52 -121 52 C-121 51.34 -121 50.68 -121 50 C-119.26953125 48.58984375 -119.26953125 48.58984375 -116.8125 46.9375 C-115.90628906 46.32261719 -115.00007812 45.70773438 -114.06640625 45.07421875 C-113.05449219 44.38972656 -112.04257812 43.70523438 -111 43 C-109.88244768 42.21721815 -108.76660352 41.43199285 -107.65234375 40.64453125 C-107.08733154 40.24693604 -106.52231934 39.84934082 -105.94018555 39.43969727 C-104.31922599 38.29872718 -102.69866653 37.15718874 -101.078125 36.015625 C-98 34 -98 34 -94.671875 32.359375 C-91.89128325 31.27789239 -91.89128325 31.27789239 -91 29 C-89.22144796 28.05790983 -87.40149035 27.19286047 -85.5625 26.375 C-84.57378906 25.92898437 -83.58507812 25.48296875 -82.56640625 25.0234375 C-80 24 -80 24 -78 24 C-78 23.34 -78 22.68 -78 22 C-76.39850114 21.32694982 -74.79368971 20.66177773 -73.1875 20 C-71.84751953 19.443125 -71.84751953 19.443125 -70.48046875 18.875 C-68 18 -68 18 -65 18 C-65 17.34 -65 16.68 -65 16 C-53.28125 11.60546875 -53.28125 11.60546875 -51.13208008 10.8034668 C-49.72997137 10.27508711 -48.33121029 9.73772177 -46.9362793 9.19067383 C-42.61054066 7.50945957 -38.36869531 6.26823908 -33.8125 5.3125 C-32.05873047 4.93544922 -32.05873047 4.93544922 -30.26953125 4.55078125 C-27.42385093 4.07140141 -24.87432332 3.8863262 -22 4 C-22 3.34 -22 2.68 -22 2 C-7.40318907 -0.29612756 -7.40318907 -0.29612756 0 0 Z " fill="#FFFFFF" transform="translate(675,208)"/>
<path d="M0 0 C2.31 0 4.62 0 7 0 C7.67301289 3.24871916 8.3372951 6.49916379 9 9.75 C9.19078125 10.67039063 9.3815625 11.59078125 9.578125 12.5390625 C9.75859375 13.42851562 9.9390625 14.31796875 10.125 15.234375 C10.37636719 16.45979004 10.37636719 16.45979004 10.6328125 17.70996094 C11 20 11 20 11 24 C11.66 24 12.32 24 13 24 C13.83679277 26.62394306 14.66956942 29.24904384 15.5 31.875 C15.73847656 32.62136719 15.97695312 33.36773437 16.22265625 34.13671875 C18 39.7734375 18 39.7734375 18 42 C18.66 42 19.32 42 20 42 C20.24234375 42.79664063 20.4846875 43.59328125 20.734375 44.4140625 C22.58133774 50.25330624 24.4539346 54.96687492 28 60 C28.65162109 61.80404297 28.65162109 61.80404297 29.31640625 63.64453125 C30.990533 68.24615288 33.33210757 72.26816257 35.875 76.4375 C36.76627957 77.92669177 37.65691099 79.41627166 38.546875 80.90625 C38.97033203 81.61136719 39.39378906 82.31648438 39.83007812 83.04296875 C41.29318622 85.49043838 42.72245932 87.95484178 44.125 90.4375 C44.68574219 91.42556641 44.68574219 91.42556641 45.2578125 92.43359375 C46 94 46 94 46 96 C46.66 96 47.32 96 48 96 C48.39832031 96.75925781 48.79664063 97.51851563 49.20703125 98.30078125 C49.73683594 99.29464844 50.26664062 100.28851563 50.8125 101.3125 C51.33457031 102.29863281 51.85664063 103.28476562 52.39453125 104.30078125 C53.78967146 106.64638195 55.02828485 108.16989975 57 110 C58.3440093 111.99284138 59.67541292 113.99419671 61 116 C62.59301815 118.10184458 64.20229229 120.18906639 65.828125 122.265625 C67 124 67 124 67 126 C67.66 126 68.32 126 69 126 C70.515625 127.6875 70.515625 127.6875 72.25 130 C73.19552734 131.24716797 73.19552734 131.24716797 74.16015625 132.51953125 C75.2365736 133.97075209 76.30889408 135.42505938 77.37109375 136.88671875 C80.77397864 141.54170372 84.43766174 145.93572953 88.1875 150.3125 C88.71110107 150.92375732 89.23470215 151.53501465 89.77416992 152.16479492 C92.6099526 155.47149974 92.6099526 155.47149974 95.66918945 158.56713867 C97 160 97 160 97 162 C97.66 162 98.32 162 99 162 C99.2475 162.78375 99.495 163.5675 99.75 164.375 C100.69529913 167.0842358 100.69529913 167.0842358 102.7265625 167.7890625 C106.01792088 169.54219153 108.1845429 172.24508955 110.625 175 C111.68971658 176.17861192 112.75614788 177.35567691 113.82421875 178.53125 C114.3557959 179.11648438 114.88737305 179.70171875 115.43505859 180.3046875 C119.15550878 184.33507846 123.09194278 188.15290034 127 192 C129.49391406 194.48651373 131.97899499 196.9784564 134.4375 199.5 C136.3540553 201.36981005 138.23236882 203.02241847 140.3125 204.6875 C141.199375 205.450625 142.08625 206.21375 143 207 C143 207.66 143 208.32 143 209 C143.5775 209.268125 144.155 209.53625 144.75 209.8125 C147.05550043 211.02929189 149.02056192 212.30333879 151 214 C151 214.66 151 215.32 151 216 C151.66 216 152.32 216 153 216 C153 216.66 153 217.32 153 218 C154.0828125 218.3403125 154.0828125 218.3403125 155.1875 218.6875 C158.61551111 220.28723852 160.37789594 222.25870939 163 225 C168.74416943 230.32556599 174.75730275 235.27255388 180.91015625 240.1171875 C181.59980469 240.73851562 182.28945313 241.35984375 183 242 C183 242.66 183 243.32 183 244 C183.763125 244.28875 184.52625 244.5775 185.3125 244.875 C188 246 188 246 191 248 C191 248.66 191 249.32 191 250 C191.556875 250.268125 192.11375 250.53625 192.6875 250.8125 C196.98914046 253.02145051 200.41368952 254.78023027 203 259 C203 259.66 203 260.32 203 261 C202.00782471 261.02505615 201.01564941 261.0501123 199.9934082 261.07592773 C196.249013 261.17137866 192.50474533 261.27124044 188.76049805 261.37231445 C187.15180481 261.4151509 185.54308087 261.45685199 183.93432617 261.49731445 C167.96951402 260.56060292 167.96951402 260.56060292 154 264 C152.1194012 264.26414921 150.23037703 264.46868609 148.33984375 264.6484375 C147.1605127 264.76517822 145.98118164 264.88191895 144.76611328 265.00219727 C143.5026709 265.12522217 142.23922852 265.24824707 140.9375 265.375 C123.80587999 266.93780491 123.80587999 266.93780491 107.12890625 270.95703125 C103.23707971 272.25430676 99.30528015 273.19484414 95.3125 274.125 C94.17458008 274.39763672 94.17458008 274.39763672 93.01367188 274.67578125 C89.94617437 275.39595277 87.16204549 276 84 276 C84 276.66 84 277.32 84 278 C82.80503906 278.31453125 81.61007813 278.6290625 80.37890625 278.953125 C69.42655008 281.85476324 69.42655008 281.85476324 58.96875 286.15234375 C55.46071986 287.66274561 51.74538945 288.32706951 48 289 C48 289.66 48 290.32 48 291 C45.8765984 291.83739781 43.7512272 292.66980283 41.625 293.5 C40.44164062 293.9640625 39.25828125 294.428125 38.0390625 294.90625 C35 296 35 296 33 296 C33 296.66 33 297.32 33 298 C31.21046815 298.83790789 29.41830305 299.67019396 27.625 300.5 C26.62726563 300.9640625 25.62953125 301.428125 24.6015625 301.90625 C22 303 22 303 20 303 C20 303.66 20 304.32 20 305 C18.37750059 305.83819158 16.75191503 306.6704116 15.125 307.5 C14.22007812 307.9640625 13.31515625 308.428125 12.3828125 308.90625 C10 310 10 310 8 310 C8 310.66 8 311.32 8 312 C6.54462432 312.83848804 5.08559627 313.67063934 3.625 314.5 C2.81289062 314.9640625 2.00078125 315.428125 1.1640625 315.90625 C-1 317 -1 317 -3 317 C-3.33 317.99 -3.66 318.98 -4 320 C-5.74689587 321.03519755 -7.49845037 322.06537087 -9.29296875 323.015625 C-11.12303334 323.96599683 -11.12303334 323.96599683 -12.6875 325.75 C-14 327 -14 327 -18 327 C-17.125 322.25 -17.125 322.25 -16 320 C-15.34 320 -14.68 320 -14 320 C-13.85304688 319.05253906 -13.85304688 319.05253906 -13.703125 318.0859375 C-12.81919537 312.79759987 -11.64734924 307.84422241 -9.95703125 302.75390625 C-7.43885972 294.02240769 -7.34476446 285.5980887 -7.4375 276.5625 C-7.43976593 275.73050079 -7.44203186 274.89850159 -7.44436646 274.04129028 C-7.50078643 260.93535396 -9.05441365 248.94162272 -12.46191406 236.26074219 C-13.65407502 231.25193526 -13.89154951 226.1366098 -14 221 C-14.66 221 -15.32 221 -16 221 C-16.16604736 220.25427734 -16.33209473 219.50855469 -16.50317383 218.74023438 C-17.26704424 215.32547131 -18.03969795 211.91275233 -18.8125 208.5 C-19.07353516 207.32695312 -19.33457031 206.15390625 -19.60351562 204.9453125 C-21.24031626 197.68869664 -21.24031626 197.68869664 -23.59375 190.64453125 C-25.0889251 186.76953578 -25.90712386 183.2627976 -26.6875 179.1875 C-26.93886719 177.90230469 -27.19023438 176.61710938 -27.44921875 175.29296875 C-28 172 -28 172 -28 169 C-28.66 169 -29.32 169 -30 169 C-30.17128418 168.18845459 -30.34256836 167.37690918 -30.51904297 166.54077148 C-31.16192735 163.50063594 -31.80703881 160.46098356 -32.45361328 157.42163086 C-32.86790662 155.47089972 -33.27967852 153.51963363 -33.69140625 151.56835938 C-33.95566406 150.32763672 -34.21992187 149.08691406 -34.4921875 147.80859375 C-34.85352783 146.10401001 -34.85352783 146.10401001 -35.22216797 144.36499023 C-35.74931466 142.08449341 -36.35412284 139.82082479 -37.02734375 137.57910156 C-38.07866107 133.71054936 -38.63806084 129.8988376 -39.0703125 125.92578125 C-39.15662933 125.16866348 -39.24294617 124.41154572 -39.33187866 123.63148499 C-39.60554254 121.19273209 -39.86740655 118.75300062 -40.125 116.3125 C-40.21338135 115.47720764 -40.3017627 114.64191528 -40.39282227 113.78131104 C-42.78790361 90.83469112 -43.00562537 68.56699696 -37 46 C-36.34 46 -35.68 46 -35 46 C-34.896875 45.175 -34.79375 44.35 -34.6875 43.5 C-33.88353944 39.40710988 -32.53647842 35.87459775 -31 32 C-30.34 32 -29.68 32 -29 32 C-28.62875 30.948125 -28.62875 30.948125 -28.25 29.875 C-23.19842123 18.25636882 -12.42663947 7.29527195 -1 2 C-0.67 1.34 -0.34 0.68 0 0 Z " fill="#FFFFFF" transform="translate(114,203)"/>
<path d="M0 0 C1.05520734 3.18686782 0.9530294 4.79214639 -0.3125 7.875 C-2.24663238 13.16516117 -2.88522717 18.48776829 -3.5703125 24.05859375 C-4 27 -4 27 -5 29 C-7.42035307 74.71166829 3.27839649 117.53296597 16.04711914 161.06713867 C17.39212296 165.68747147 18.56288531 170.30541347 19.55322266 175.01513672 C19.97404635 176.8846977 20.51480082 178.72609687 21.0625 180.5625 C21.79708856 183.2559914 22.24999973 185.62597418 22.5625 188.375 C22.59793141 191.8036937 22.59793141 191.8036937 24 193 C24.40146756 195.07473748 24.74627476 197.16057103 25.0625 199.25 C25.23910156 200.38953125 25.41570312 201.5290625 25.59765625 202.703125 C25.94128788 205.51890262 26.07980079 208.16973183 26 211 C20.48903658 202.73355486 20.46622378 190.6781626 20 181 C19.34 181 18.68 181 18 181 C17.83395264 180.25427734 17.66790527 179.50855469 17.49682617 178.74023438 C16.73295576 175.32547131 15.96030205 171.91275233 15.1875 168.5 C14.92646484 167.32695312 14.66542969 166.15390625 14.39648438 164.9453125 C12.75968374 157.68869664 12.75968374 157.68869664 10.40625 150.64453125 C8.9110749 146.76953578 8.09287614 143.2627976 7.3125 139.1875 C7.06113281 137.90230469 6.80976562 136.61710938 6.55078125 135.29296875 C6 132 6 132 6 129 C5.34 129 4.68 129 4 129 C3.82871582 128.18845459 3.65743164 127.37690918 3.48095703 126.54077148 C2.83807265 123.50063594 2.19296119 120.46098356 1.54638672 117.42163086 C1.13209338 115.47089972 0.72032148 113.51963363 0.30859375 111.56835938 C0.04433594 110.32763672 -0.21992187 109.08691406 -0.4921875 107.80859375 C-0.73308105 106.67220459 -0.97397461 105.53581543 -1.22216797 104.36499023 C-1.74931466 102.08449341 -2.35412284 99.82082479 -3.02734375 97.57910156 C-4.07866107 93.71054936 -4.63806084 89.8988376 -5.0703125 85.92578125 C-5.15662933 85.16866348 -5.24294617 84.41154572 -5.33187866 83.63148499 C-5.60554254 81.19273209 -5.86740655 78.75300062 -6.125 76.3125 C-6.21338135 75.47720764 -6.3017627 74.64191528 -6.39282227 73.78131104 C-8.78790361 50.83469112 -9.00562537 28.56699696 -3 6 C-2.34 6 -1.68 6 -1 6 C-0.67 4.02 -0.34 2.04 0 0 Z " fill="#FFFFFF" transform="translate(80,243)"/>
<path d="M0 0 C0.495 1.485 0.495 1.485 1 3 C-0.2578125 4.8671875 -0.2578125 4.8671875 -2.125 6.875 C-2.77339844 7.57882812 -3.42179688 8.28265625 -4.08984375 9.0078125 C-6.35973612 11.37518491 -8.64920613 13.7127411 -11 16 C-11.721875 16.763125 -12.44375 17.52625 -13.1875 18.3125 C-15 20 -15 20 -17 20 C-17.2475 20.598125 -17.495 21.19625 -17.75 21.8125 C-19.16370012 24.28647521 -20.65055383 25.43370255 -23 27 C-23.66 26.67 -24.32 26.34 -25 26 C-24.34 25.01 -23.68 24.02 -23 23 C-23 21.68 -23 20.36 -23 19 C-26.55535855 19 -27.61941896 19.84148517 -30.5625 21.75 C-42.26214455 29 -42.26214455 29 -48 29 C-48 28.34 -48 27.68 -48 27 C-46.04350603 26.16235732 -44.08474444 25.33000941 -42.125 24.5 C-41.03445313 24.0359375 -39.94390625 23.571875 -38.8203125 23.09375 C-36 22 -36 22 -34 22 C-34 21.34 -34 20.68 -34 20 C-32.37750059 19.16180842 -30.75191503 18.3295884 -29.125 17.5 C-28.22007812 17.0359375 -27.31515625 16.571875 -26.3828125 16.09375 C-24 15 -24 15 -22 15 C-22 14.34 -22 13.68 -22 13 C-21.31292969 12.67386719 -20.62585938 12.34773437 -19.91796875 12.01171875 C-18.56638672 11.35623047 -18.56638672 11.35623047 -17.1875 10.6875 C-15.84751953 10.04361328 -15.84751953 10.04361328 -14.48046875 9.38671875 C-12.16453449 8.09198385 -10.82948957 6.86841488 -9 5 C-7.46454126 4.0585702 -5.89978226 3.16365136 -4.3125 2.3125 C-3.50425781 1.87550781 -2.69601562 1.43851563 -1.86328125 0.98828125 C-1.24839844 0.66214844 -0.63351562 0.33601562 0 0 Z " fill="#FFFFFF" transform="translate(989,631)"/>
<path d="M0 0 C0.33 0 0.66 0 1 0 C0.94465088 0.73412109 0.88930176 1.46824219 0.83227539 2.22460938 C0.29458339 9.3729475 -0.2348786 16.52184642 -0.75634766 23.67138672 C-0.90001607 25.63408733 -1.04497134 27.59669574 -1.19287109 29.55908203 C-2.9416225 52.82850392 -1.45439901 75.82360233 1 99 C1.66 99 2.32 99 3 99 C3.69918305 101.58067563 4.38461049 104.16372847 5.0625 106.75 C5.26166016 107.47960937 5.46082031 108.20921875 5.66601562 108.9609375 C6.63744407 112.71031044 7.15449387 115.30274238 6 119 C5.47599609 117.39318359 5.47599609 117.39318359 4.94140625 115.75390625 C4.48192855 114.35671896 4.02228454 112.95958635 3.5625 111.5625 C3.33240234 110.85544922 3.10230469 110.14839844 2.86523438 109.41992188 C1.92578853 105.93693205 1.92578853 105.93693205 0 103 C-6.88590115 77.0091329 -12.42614406 24.85228812 0 0 Z " fill="#FFFFFF" transform="translate(551,467)"/>
<path d="M0 0 C7.20010602 -0.02571362 14.40019987 -0.0430164 21.6003418 -0.05493164 C24.04110151 -0.05990787 26.48185832 -0.06669125 28.92260742 -0.07543945 C67.31586828 -0.20943359 67.31586828 -0.20943359 82.6875 2.5625 C83.50798828 2.70107422 84.32847656 2.83964844 85.17382812 2.98242188 C87.11753072 3.31205565 89.0590701 3.6544145 91 4 C91 4.66 91 5.32 91 6 C85.72 5.67 80.44 5.34 75 5 C75 4.34 75 3.68 75 3 C73.99066406 3.01160156 72.98132813 3.02320313 71.94140625 3.03515625 C63.06773999 3.10223806 54.23927342 2.91477787 45.375 2.5 C30.25216141 1.80488927 15.13473954 1.9054715 0 2 C0 1.34 0 0.68 0 0 Z " fill="#FFFFFF" transform="translate(291,620)"/>
<path d="M0 0 C1.19046765 3.57140295 0.77683729 4.06081699 -0.8125 7.3125 C-2.50637493 10.81643623 -3.79938584 14.29695634 -5 18 C-6.24968521 21.52475315 -7.51562443 25.04344354 -8.78125 28.5625 C-12.43838692 38.87750158 -15.81699492 49.26689169 -18 60 C-18.66 60 -19.32 60 -20 60 C-20.12503906 61.08410156 -20.25007812 62.16820312 -20.37890625 63.28515625 C-21.05798631 68.69989481 -21.98485255 74.06513501 -22.9375 79.4375 C-23.10701172 80.44232422 -23.27652344 81.44714844 -23.45117188 82.48242188 C-23.62068359 83.43568359 -23.79019531 84.38894531 -23.96484375 85.37109375 C-24.1155835 86.23661865 -24.26632324 87.10214355 -24.42163086 87.99389648 C-24.70792358 88.98691772 -24.70792358 88.98691772 -25 90 C-25.99 90.495 -25.99 90.495 -27 91 C-27.40205278 84.39885434 -25.90692019 78.50509071 -24.3125 72.125 C-24.04211914 71.0218042 -23.77173828 69.9186084 -23.49316406 68.78198242 C-19.68807975 53.45123974 -14.9490883 38.5549296 -9.625 23.6875 C-9.23828125 22.59759766 -8.8515625 21.50769531 -8.453125 20.38476562 C-5.96065143 13.43009524 -3.30606145 6.6121229 0 0 Z " fill="#FFFFFF" transform="translate(579,376)"/>
<path d="M0 0 C-3.63195496 2.42130331 -5.38349348 2.21022785 -9.6875 2.125 C-10.86699219 2.10695313 -12.04648438 2.08890625 -13.26171875 2.0703125 C-14.16535156 2.04710937 -15.06898437 2.02390625 -16 2 C-16 2.66 -16 3.32 -16 4 C-28.87 4 -41.74 4 -55 4 C-55 3.34 -55 2.68 -55 2 C-48.61381143 1.71236457 -42.22748806 1.42787619 -35.84106445 1.14550781 C-33.67143631 1.04921633 -31.50183924 0.95222177 -29.33227539 0.85449219 C-26.20206613 0.7136148 -23.0717514 0.57532092 -19.94140625 0.4375 C-18.98166397 0.39375244 -18.02192169 0.35000488 -17.03309631 0.30493164 C-11.3488925 0.05760979 -5.68962347 -0.04076757 0 0 Z " fill="#FFFFFF" transform="translate(117,642)"/>
<path d="M0 0 C2.47726014 2.47726014 2.70308136 4.17126469 3.5 7.5625 C3.75652344 8.64015625 4.01304688 9.7178125 4.27734375 10.828125 C5.0477496 14.20958204 5.79958812 17.59434161 6.53125 20.984375 C6.96800424 22.86241821 7.51142203 24.71476798 8.0625 26.5625 C8.79708856 29.2559914 9.24999973 31.62597418 9.5625 34.375 C9.59793141 37.8036937 9.59793141 37.8036937 11 39 C11.40146756 41.07473748 11.74627476 43.16057103 12.0625 45.25 C12.23910156 46.38953125 12.41570312 47.5290625 12.59765625 48.703125 C12.94128788 51.51890262 13.07980079 54.16973183 13 57 C7.48903658 48.73355486 7.46622378 36.6781626 7 27 C6.34 27 5.68 27 5 27 C4.15984843 23.25149397 3.32906781 19.50097168 2.5 15.75 C2.26152344 14.68652344 2.02304688 13.62304688 1.77734375 12.52734375 C1.55175781 11.50253906 1.32617188 10.47773438 1.09375 9.421875 C0.88427734 8.47924805 0.67480469 7.53662109 0.45898438 6.56542969 C0 4 0 4 0 0 Z " fill="#FFFFFF" transform="translate(93,397)"/>
<path d="M0 0 C7.47835477 1.22951674 14.7216477 2.88829237 22 5 C22 5.66 22 6.32 22 7 C22.6084375 7.07476563 23.216875 7.14953125 23.84375 7.2265625 C29.96025858 8.14403879 35.54834689 9.75859675 41.3125 11.9375 C41.98152344 12.19031738 42.65054688 12.44313477 43.33984375 12.70361328 C47.34628047 14.25890084 51.18161442 16.01680749 55 18 C53 19 53 19 50.42578125 18.328125 C49.39839844 17.97234375 48.37101563 17.6165625 47.3125 17.25 C46.29800781 16.90453125 45.28351562 16.5590625 44.23828125 16.203125 C41.99866988 15.37103778 39.78638237 14.46293932 37.6015625 13.49609375 C33.79385907 11.91436879 30.05003988 10.81818964 26.0625 9.8125 C25.37865234 9.63525391 24.69480469 9.45800781 23.99023438 9.27539062 C22.3280919 8.84532579 20.66422212 8.42194563 19 8 C19 7.34 19 6.68 19 6 C18.38253906 5.89042969 17.76507813 5.78085937 17.12890625 5.66796875 C11.22287499 4.5622734 5.64802441 3.04638565 0 1 C0 0.67 0 0.34 0 0 Z " fill="#FFFFFF" transform="translate(477,645)"/>
<path d="M0 0 C0.33 0.99 0.66 1.98 1 3 C-0.2578125 4.8671875 -0.2578125 4.8671875 -2.125 6.875 C-2.77339844 7.57882812 -3.42179688 8.28265625 -4.08984375 9.0078125 C-6.35973612 11.37518491 -8.64920613 13.7127411 -11 16 C-11.763125 16.763125 -12.52625 17.52625 -13.3125 18.3125 C-13.869375 18.869375 -14.42625 19.42625 -15 20 C-15.66 19.67 -16.32 19.34 -17 19 C-16.195625 18.2575 -15.39125 17.515 -14.5625 16.75 C-11.73705908 13.77989283 -11.73705908 13.77989283 -11 10 C-11.33 9.34 -11.66 8.68 -12 8 C-9.69716746 5.45868642 -7.32686207 3.92889705 -4.3125 2.3125 C-3.50425781 1.87550781 -2.69601562 1.43851563 -1.86328125 0.98828125 C-1.24839844 0.66214844 -0.63351562 0.33601562 0 0 Z " fill="#FFFFFF" transform="translate(989,631)"/>
<path d="M0 0 C0.99 0.66 1.98 1.32 3 2 C3 2.66 3 3.32 3 4 C-11.19 4.33 -25.38 4.66 -40 5 C-40 4.34 -40 3.68 -40 3 C-31.25673005 1.98874945 -22.60676561 1.88042289 -13.8125 1.9375 C-12.46549648 1.94253037 -11.11849111 1.94709053 -9.77148438 1.95117188 C-6.51427463 1.96284646 -3.25716222 1.97922117 0 2 C0 1.34 0 0.68 0 0 Z " fill="#FFFFFF" transform="translate(314,460)"/>
<path d="M0 0 C0.66 0 1.32 0 2 0 C0.71766112 2.60491928 -0.6236509 5.15581167 -2.05859375 7.6796875 C-2.44466797 8.36160156 -2.83074219 9.04351562 -3.22851562 9.74609375 C-4.03019794 11.15777989 -4.83227701 12.5692408 -5.63476562 13.98046875 C-7.87363516 17.93667415 -9.98050358 21.92578338 -12 26 C-12.67573575 27.17351973 -13.36119951 28.34157651 -14.0625 29.5 C-15.42429348 31.82275718 -16.19088103 33.62036335 -17 36.25 C-18.12960407 39.35641119 -19.20908215 40.32544929 -22 42 C-21.30565988 38.54150556 -19.95776368 35.7232865 -18.33984375 32.59765625 C-17.79690674 31.54763428 -17.25396973 30.4976123 -16.69458008 29.41577148 C-15.82482544 27.7559021 -15.82482544 27.7559021 -14.9375 26.0625 C-14.35057373 24.93980713 -13.76364746 23.81711426 -13.15893555 22.66040039 C-4.0093801 5.29322359 -4.0093801 5.29322359 0 0 Z " fill="#FFFFFF" transform="translate(621,292)"/>
<path d="M0 0 C0.33 0.66 0.66 1.32 1 2 C-0.28062485 3.7074998 -1.61767557 5.37373596 -3 7 C-3.66 7 -4.32 7 -5 7 C-5.23460937 7.56074219 -5.46921875 8.12148438 -5.7109375 8.69921875 C-9.98946988 16.33575079 -18.36035404 22.39895787 -25 28 C-25 24.13748641 -23.8902236 23.41713684 -21.3125 20.625 C-20.5803125 19.82964844 -19.848125 19.03429687 -19.09375 18.21484375 C-15.2460452 14.14460378 -11.37078483 10.49662786 -7 7 C-5.31384218 5.35305515 -3.64429829 3.68873879 -2 2 C-1.34 1.34 -0.68 0.68 0 0 Z " fill="#FFFFFF" transform="translate(528,281)"/>
<path d="M0 0 C13.86 0 27.72 0 42 0 C40.90810185 5.45949074 40.31208438 6.01471081 36 9 C37.20381448 6.50638429 38.45428722 4.31856917 40 2 C38.70449219 2.01160156 37.40898437 2.02320313 36.07421875 2.03515625 C24.01087293 2.10823284 12.0383209 1.77045254 0 1 C0 0.67 0 0.34 0 0 Z " fill="#FFFFFF" transform="translate(299,482)"/>
<path d="M0 0 C1.17175781 0.01353516 1.17175781 0.01353516 2.3671875 0.02734375 C2.94726562 0.03894531 3.52734375 0.05054688 4.125 0.0625 C0.52321412 2.46369059 -2.38366369 2.50021322 -6.5625 2.6875 C-7.6153418 2.74550781 -7.6153418 2.74550781 -8.68945312 2.8046875 C-10.41754655 2.8987334 -12.14623675 2.9816968 -13.875 3.0625 C-13.875 3.7225 -13.875 4.3825 -13.875 5.0625 C-23.28 6.0525 -23.28 6.0525 -32.875 7.0625 C-32.875 6.4025 -32.875 5.7425 -32.875 5.0625 C-31.225 5.0625 -29.575 5.0625 -27.875 5.0625 C-27.875 4.4025 -27.875 3.7425 -27.875 3.0625 C-26.71742188 2.92972656 -25.55984375 2.79695312 -24.3671875 2.66015625 C-22.82811592 2.48184918 -21.28905393 2.30345938 -19.75 2.125 C-18.98945313 2.03798828 -18.22890625 1.95097656 -17.4453125 1.86132812 C-14.15190458 1.47804358 -10.89327491 1.06566297 -7.625 0.5 C-5.0248767 0.08634402 -2.62789541 -0.0398166 0 0 Z " fill="#FFFFFF" transform="translate(216.875,626.9375)"/>
<path d="M0 0 C2.31 0 4.62 0 7 0 C7.66978673 3.29103983 8.33529822 6.5829297 9 9.875 C9.19078125 10.81214844 9.3815625 11.74929687 9.578125 12.71484375 C9.84882812 14.05869141 9.84882812 14.05869141 10.125 15.4296875 C10.29257813 16.25710449 10.46015625 17.08452148 10.6328125 17.93701172 C11 20 11 20 11 22 C10.34 22 9.68 22 9 22 C5.94554577 11.54954024 5.94554577 11.54954024 5.4375 6.375 C5.293125 5.26125 5.14875 4.1475 5 3 C4.34 2.67 3.68 2.34 3 2 C3 2.99 3 3.98 3 5 C1.9275 5.12375 0.855 5.2475 -0.25 5.375 C-3.37863615 5.89643936 -5.33480424 6.40088254 -8 8 C-7 5 -7 5 -4 3.4375 C-3.01 2.963125 -2.02 2.48875 -1 2 C-0.67 1.34 -0.34 0.68 0 0 Z " fill="#FFFFFF" transform="translate(114,203)"/>
<path d="M0 0 C-3.11181984 2.07454656 -4.70967911 2.45040597 -8.33203125 3 C-9.37810547 3.165 -10.42417969 3.33 -11.50195312 3.5 C-12.59443359 3.665 -13.68691406 3.83 -14.8125 4 C-24.05344511 5.37554681 -24.05344511 5.37554681 -33 8 C-33.66 8 -34.32 8 -35 8 C-35 7.01 -35 6.02 -35 5 C-32.00085281 4.34998322 -29.00078199 3.70488963 -26 3.0625 C-25.16082031 2.88009766 -24.32164062 2.69769531 -23.45703125 2.50976562 C-15.59106491 0.83291234 -8.05462023 -0.1438325 0 0 Z " fill="#FFFFFF" transform="translate(251,467)"/>
<path d="M0 0 C0.66 0.33 1.32 0.66 2 1 C-0.09384678 4.8266855 -1.8465327 7.98363997 -5 11 C-6.62583922 13.47127561 -7.88252078 15.58348278 -8.6875 18.4375 C-10.74242933 22.44950488 -14.32634324 24.51387414 -18 27 C-17.1875 24.5625 -17.1875 24.5625 -16 22 C-15.01 21.67 -14.02 21.34 -13 21 C-12.30741771 19.00882592 -11.64252365 17.0078864 -11 15 C-9.5625 13.4375 -9.5625 13.4375 -8 12 C-7.505 11.175 -7.01 10.35 -6.5 9.5 C-5.14881739 7.24802898 -3.83113623 5.83113623 -2 4 C-0.82425289 1.90010348 -0.82425289 1.90010348 0 0 Z " fill="#FFFFFF" transform="translate(408,429)"/>
<path d="M0 0 C2.47960136 0.14024219 4.95852402 0.2869185 7.4375 0.4375 C8.14455078 0.47681641 8.85160156 0.51613281 9.58007812 0.55664062 C14.88671875 0.88671875 14.88671875 0.88671875 16 2 C17.55753051 2.22670908 19.12377359 2.39435092 20.69140625 2.53515625 C21.63564453 2.62216797 22.57988281 2.70917969 23.55273438 2.79882812 C24.54595703 2.88583984 25.53917969 2.97285156 26.5625 3.0625 C27.55958984 3.15337891 28.55667969 3.24425781 29.58398438 3.33789062 C32.05565702 3.56258814 34.52763256 3.78310351 37 4 C37 4.33 37 4.66 37 5 C33.01607456 4.90561964 29.03265105 4.79935195 25.04931641 4.68261719 C23.03694667 4.62603877 21.02432773 4.57855912 19.01171875 4.53125 C12.38087924 4.33132519 6.34430597 3.99068784 0 2 C0 1.34 0 0.68 0 0 Z " fill="#FFFFFF" transform="translate(748,691)"/>
<path d="M0 0 C0 3.4667306 -0.6268389 4.27777607 -2.5625 7.0625 C-3.11035156 7.85785156 -3.65820312 8.65320313 -4.22265625 9.47265625 C-4.80917969 10.30667969 -5.39570312 11.14070312 -6 12 C-6.57621094 12.82371094 -7.15242187 13.64742187 -7.74609375 14.49609375 C-8.91604068 16.16632978 -10.08922589 17.83430214 -11.265625 19.5 C-13.47061583 22.67836517 -15.56544678 25.92317471 -17.640625 29.1875 C-19 31 -19 31 -22 33 C-20.64849257 29.20226411 -18.9347216 26.32805587 -16.5 23.125 C-12.57616842 17.85729204 -8.92121251 12.44828808 -5.32617188 6.95166016 C-3.6753801 4.44190376 -2.1305255 2.1305255 0 0 Z " fill="#FFFFFF" transform="translate(669,218)"/>
<path d="M0 0 C0.33 0.99 0.66 1.98 1 3 C-2.23820824 7.99578837 -6.92415882 11.86967521 -11.48828125 15.61328125 C-13.51594433 17.47328227 -14.77618233 19.55236466 -16 22 C-16.33 21.34 -16.66 20.68 -17 20 C-12.38188223 12.49555863 -6.30968026 6.11250275 0 0 Z " fill="#FFFFFF" transform="translate(104,210)"/>
<path d="M0 0 C0.66 0.33 1.32 0.66 2 1 C-4.61080495 6.14850708 -15.17634965 14 -24 14 C-24 13.34 -24 12.68 -24 12 C-22.04350603 11.16235732 -20.08474444 10.33000941 -18.125 9.5 C-17.03445313 9.0359375 -15.94390625 8.571875 -14.8203125 8.09375 C-12 7 -12 7 -10 7 C-10 6.34 -10 5.68 -10 5 C-8.38007835 4.13624104 -6.75388139 3.28424146 -5.125 2.4375 C-4.22007812 1.96183594 -3.31515625 1.48617187 -2.3828125 0.99609375 C-1.59648438 0.66738281 -0.81015625 0.33867188 0 0 Z " fill="#FFFFFF" transform="translate(965,646)"/>
<path d="M0 0 C-3.59462331 2.25998595 -6.56595675 2.20868087 -10.75 2.125 C-12.50570313 2.09792969 -12.50570313 2.09792969 -14.296875 2.0703125 C-15.63492187 2.03550781 -15.63492187 2.03550781 -17 2 C-17 2.66 -17 3.32 -17 4 C-19.31 4 -21.62 4 -24 4 C-24 3.34 -24 2.68 -24 2 C-15.95075394 -0.25943749 -8.29683005 -0.19676277 0 0 Z " fill="#FFFFFF" transform="translate(277,621)"/>
<path d="M0 0 C1.32 0 2.64 0 4 0 C3.67 0.99 3.34 1.98 3 3 C-2.52708611 3.94220126 -7.83758352 4.12116149 -13.4375 4.0625 C-14.26443359 4.05798828 -15.09136719 4.05347656 -15.94335938 4.04882812 C-17.96227146 4.03715811 -19.98114574 4.01922718 -22 4 C-22 3.67 -22 3.34 -22 3 C-21.05362671 2.91697632 -21.05362671 2.91697632 -20.08813477 2.83227539 C-17.2458232 2.5803188 -14.40417781 2.32150231 -11.5625 2.0625 C-10.56927734 1.97548828 -9.57605469 1.88847656 -8.55273438 1.79882812 C-7.13637695 1.66831055 -7.13637695 1.66831055 -5.69140625 1.53515625 C-4.81685791 1.456604 -3.94230957 1.37805176 -3.04125977 1.29711914 C-1.00985544 1.20914952 -1.00985544 1.20914952 0 0 Z " fill="#FFFFFF" transform="translate(824,692)"/>
<path d="M0 0 C6.59554175 0.41154448 12.71765356 0.90588452 19 3 C20.33130115 3.34135927 21.66358148 3.67925956 23 4 C23 4.66 23 5.32 23 6 C20.36 5.67 17.72 5.34 15 5 C15 4.34 15 3.68 15 3 C14.16855469 2.95101562 13.33710938 2.90203125 12.48046875 2.8515625 C11.39378906 2.77679687 10.30710937 2.70203125 9.1875 2.625 C8.10855469 2.55539062 7.02960938 2.48578125 5.91796875 2.4140625 C3 2 3 2 0 0 Z " fill="#FFFFFF" transform="translate(401,627)"/>
<path d="M0 0 C0.66 0 1.32 0 2 0 C2.69918305 2.58067563 3.38461049 5.16372847 4.0625 7.75 C4.26166016 8.47960937 4.46082031 9.20921875 4.66601562 9.9609375 C5.63744407 13.71031044 6.15449387 16.30274238 5 20 C2.60918605 13.32796106 0.54515672 7.08703739 0 0 Z " fill="#FFFFFF" transform="translate(552,566)"/>
<path d="M0 0 C0.309375 0.639375 0.61875 1.27875 0.9375 1.9375 C1.8345163 3.93610821 1.8345163 3.93610821 3 5 C3.40146756 7.07473748 3.74627476 9.16057103 4.0625 11.25 C4.23910156 12.38953125 4.41570312 13.5290625 4.59765625 14.703125 C4.94128788 17.51890262 5.07980079 20.16973183 5 23 C2.76276232 19.64414347 2.20398187 17.11888374 1.375 13.1875 C1.11460938 11.98480469 0.85421875 10.78210938 0.5859375 9.54296875 C0.04603745 6.27837314 -0.11116414 3.2995537 0 0 Z " fill="#FFFFFF" transform="translate(101,431)"/>
<path d="M0 0 C0.66 0.33 1.32 0.66 2 1 C1.34 1.66 0.68 2.32 0 3 C-0.99 3 -1.98 3 -3 3 C-3.268125 3.61875 -3.53625 4.2375 -3.8125 4.875 C-5 7 -5 7 -8 9 C-10.1875 8.625 -10.1875 8.625 -12 8 C-10.75312408 7.03760548 -9.50235031 6.08025991 -8.25 5.125 C-7.55390625 4.59132812 -6.8578125 4.05765625 -6.140625 3.5078125 C-4.13054265 2.09195158 -2.28373314 0.91157415 0 0 Z " fill="#FFFFFF" transform="translate(581,240)"/>
<path d="M0 0 C1.8871875 0.061875 1.8871875 0.061875 3.8125 0.125 C4.1425 1.115 4.4725 2.105 4.8125 3.125 C2.875 6.3125 2.875 6.3125 0.8125 9.125 C0.1525 8.795 -0.5075 8.465 -1.1875 8.125 C-0.1975 6.145 0.7925 4.165 1.8125 2.125 C-1.1575 2.125 -4.1275 2.125 -7.1875 2.125 C-4.09861478 0.06574319 -3.47814073 -0.1140374 0 0 Z " fill="#FFFFFF" transform="translate(671.1875,207.875)"/>
<path d="M0 0 C0.66 0.33 1.32 0.66 2 1 C-0.40495299 4.88167851 -3.10590381 6.31892224 -7.1875 8.25 C-8.27417969 8.77078125 -9.36085938 9.2915625 -10.48046875 9.828125 C-11.31191406 10.21484375 -12.14335938 10.6015625 -13 11 C-13 10.34 -13 9.68 -13 9 C-10.91796875 7.34375 -10.91796875 7.34375 -8.1875 5.5 C-7.29417969 4.8915625 -6.40085937 4.283125 -5.48046875 3.65625 C-3.65413054 2.43677378 -1.82722366 1.2181491 0 0 Z " fill="#FFFFFF" transform="translate(567,249)"/>
<path d="M0 0 C0.66 0 1.32 0 2 0 C3.40454548 6.11980533 4.23268915 11.71739294 4 18 C3.34 17.67 2.68 17.34 2 17 C1.52381188 14.12817413 1.15832403 11.32879853 0.875 8.4375 C0.78863281 7.63119141 0.70226562 6.82488281 0.61328125 5.99414062 C0.40056372 3.99695936 0.19922145 1.99857263 0 0 Z " fill="#FFFFFF" transform="translate(75,326)"/>
<path d="M0 0 C1.30123433 3.903703 0.37833902 5.25300693 -1.1875 9 C-1.61417969 10.051875 -2.04085937 11.10375 -2.48046875 12.1875 C-4.02601942 15.04815933 -5.26564704 16.31371809 -8 18 C-7.26733512 13.91358743 -5.31342025 10.40525846 -3.4375 6.75 C-3.10814453 6.1003125 -2.77878906 5.450625 -2.43945312 4.78125 C-1.62992435 3.18565706 -0.81544958 1.59257517 0 0 Z " fill="#FFFFFF" transform="translate(607,316)"/>
<path d="M0 0 C1.65 0 3.3 0 5 0 C5 0.66 5 1.32 5 2 C4.34 2 3.68 2 3 2 C3 2.99 3 3.98 3 5 C1.9275 5.12375 0.855 5.2475 -0.25 5.375 C-3.37863615 5.89643936 -5.33480424 6.40088254 -8 8 C-7 5 -7 5 -4 3.4375 C-3.01 2.963125 -2.02 2.48875 -1 2 C-0.67 1.34 -0.34 0.68 0 0 Z " fill="#FFFFFF" transform="translate(114,203)"/>
<path d="M0 0 C3.3 0.33 6.6 0.66 10 1 C10 1.66 10 2.32 10 3 C11.134375 3.12375 12.26875 3.2475 13.4375 3.375 C14.613125 3.58125 15.78875 3.7875 17 4 C17.33 4.66 17.66 5.32 18 6 C15.74752939 5.57540327 13.49806835 5.13481972 11.25 4.6875 C9.99703125 4.44386719 8.7440625 4.20023438 7.453125 3.94921875 C4 3 4 3 0 0 Z " fill="#FFFFFF" transform="translate(644,705)"/>
<path d="M0 0 C-4.36200187 2.44697666 -8.02693484 3.50269348 -13 4 C-13 3.01 -13 2.02 -13 1 C-11.58622218 0.63447197 -10.16879424 0.28304505 -8.75 -0.0625 C-7.96109375 -0.25972656 -7.1721875 -0.45695312 -6.359375 -0.66015625 C-3.89605178 -1.01497267 -2.34395868 -0.76877544 0 0 Z " fill="#FFFFFF" transform="translate(229,471)"/>
<path d="M0 0 C0.66 0 1.32 0 2 0 C0.43632643 3.52238047 -1.69495889 6.27123994 -4.125 9.25 C-4.84945313 10.14203125 -5.57390625 11.0340625 -6.3203125 11.953125 C-6.87460937 12.62859375 -7.42890625 13.3040625 -8 14 C-8.33 13.01 -8.66 12.02 -9 11 C-7.890625 9.31640625 -7.890625 9.31640625 -6.25 7.5625 C-4.45053068 5.59641316 -2.80797624 3.73253834 -1.25 1.5625 C-0.8375 1.046875 -0.425 0.53125 0 0 Z " fill="#FFFFFF" transform="translate(476,337)"/>
<path d="M0 0 C0.66 0.33 1.32 0.66 2 1 C-1.63 4.96 -5.26 8.92 -9 13 C-9.33 12.34 -9.66 11.68 -10 11 C-9.278125 10.29875 -8.55625 9.5975 -7.8125 8.875 C-5.00176187 6.07229255 -2.50483774 3.07737208 0 0 Z " fill="#FFFFFF" transform="translate(69,573)"/>
<path d="M0 0 C0.66 0 1.32 0 2 0 C2.69640673 2.12209776 3.38188357 4.24778527 4.0625 6.375 C4.44535156 7.55835938 4.82820312 8.74171875 5.22265625 9.9609375 C6 13 6 13 5 15 C1.61535404 10.3845737 0.91092494 5.51913346 0 0 Z " fill="#FFFFFF" transform="translate(125,227)"/>
<path d="M0 0 C0.66 0.33 1.32 0.66 2 1 C1.1875 3.4375 1.1875 3.4375 0 6 C-0.99 6.33 -1.98 6.66 -3 7 C-3.33 5.68 -3.66 4.36 -4 3 C-2.68 2.01 -1.36 1.02 0 0 Z " fill="#FFFFFF" transform="translate(977,640)"/>
<path d="M0 0 C0.33 0.99 0.66 1.98 1 3 C-1.64 5.31 -4.28 7.62 -7 10 C-7 7 -7 7 -5 4 C-4.01 3.67 -3.02 3.34 -2 3 C-1.34 2.01 -0.68 1.02 0 0 Z " fill="#FFFFFF" transform="translate(398,446)"/>
<path d="M0 0 C0.66 0.33 1.32 0.66 2 1 C1.2575 1.5775 0.515 2.155 -0.25 2.75 C-2.66087643 4.72253526 -4.84042701 6.76044282 -7 9 C-7.66 8.67 -8.32 8.34 -9 8 C-6.14723863 5.06799526 -3.34920216 2.35684596 0 0 Z " fill="#FFFFFF" transform="translate(552,260)"/>
<path d="M0 0 C0.33 0.66 0.66 1.32 1 2 C1.66 2 2.32 2 3 2 C4.60355101 5.50776784 5.22036864 8.14354879 5 12 C2.54792359 9.54792359 1.39341806 7.16685923 0 4 C0 2.68 0 1.36 0 0 Z " fill="#FFFFFF" transform="translate(131,243)"/>
<path d="M0 0 C0.6875 1.8125 0.6875 1.8125 1 4 C-0.3125 5.5 -0.3125 5.5 -2 7 C-3.17574711 9.09989652 -3.17574711 9.09989652 -4 11 C-5 9 -5 9 -4.0625 5.875 C-3.711875 4.92625 -3.36125 3.9775 -3 3 C-2.34 3 -1.68 3 -1 3 C-0.67 2.01 -0.34 1.02 0 0 Z " fill="#FFFFFF" transform="translate(86,232)"/>
<path d="M0 0 C0.66 0.33 1.32 0.66 2 1 C1.375 2.875 1.375 2.875 0 5 C-3.125 6.25 -3.125 6.25 -6 7 C-4.60667426 3.63279613 -3.0210714 2.0140476 0 0 Z " fill="#FFFFFF" transform="translate(541,269)"/>
<path d="M0 0 C3.64775386 3.88309282 4.58525633 6.71201818 5 12 C1.75254486 7.86687528 0 5.36067372 0 0 Z " fill="#FFFFFF" transform="translate(558,586)"/>
<path d="M0 0 C1.39195915 4.17587745 -0.17676781 6.13474776 -2 10 C-2.66 10 -3.32 10 -4 10 C-3.43454163 6.04179141 -2.19097652 3.3340947 0 0 Z " fill="#FFFFFF" transform="translate(598,334)"/>
<path d="M0 0 C0.66 0 1.32 0 2 0 C3.65 3.3 5.3 6.6 7 10 C6.01 10.495 6.01 10.495 5 11 C4.16426177 9.35538655 3.33147118 7.70927487 2.5 6.0625 C2.0359375 5.14597656 1.571875 4.22945313 1.09375 3.28515625 C0 1 0 1 0 0 Z " fill="#FFFFFF" transform="translate(160,299)"/>
<path d="M0 0 C0.33 0.66 0.66 1.32 1 2 C-0.8125 4.5 -0.8125 4.5 -3 7 C-3.99 7 -4.98 7 -6 7 C-4.60667426 3.63279613 -3.0210714 2.0140476 0 0 Z " fill="#FFFFFF" transform="translate(528,281)"/>
<path d="M0 0 C0.66 0.33 1.32 0.66 2 1 C1.34 3.97 0.68 6.94 0 10 C-0.66 10 -1.32 10 -2 10 C-1.54177532 6.53058454 -1.10868317 3.32604951 0 0 Z " fill="#FFFFFF" transform="translate(561,426)"/>
<path d="M0 0 C0.33 0.99 0.66 1.98 1 3 C0.00390625 4.82421875 0.00390625 4.82421875 -1.4375 6.6875 C-1.91058594 7.31011719 -2.38367188 7.93273437 -2.87109375 8.57421875 C-3.24363281 9.04472656 -3.61617187 9.51523437 -4 10 C-4.33 9.01 -4.66 8.02 -5 7 C-4.00390625 5.17578125 -4.00390625 5.17578125 -2.5625 3.3125 C-2.08941406 2.68988281 -1.61632812 2.06726563 -1.12890625 1.42578125 C-0.75636719 0.95527344 -0.38382813 0.48476562 0 0 Z " fill="#FFFFFF" transform="translate(646,251)"/>
<path d="M0 0 C0 3.90838866 -1.50567876 5.11594107 -4 8 C-4.66 7.67 -5.32 7.34 -6 7 C-2.25 1.125 -2.25 1.125 0 0 Z " fill="#FFFFFF" transform="translate(484,329)"/>
</svg>
