<?xml version="1.0" encoding="UTF-8" standalone="no"?>
<svg
   version="1.1"
   x="0px"
   y="0px"
   viewBox="0 0 300 64"
   enable-background="new 0 0 300 64"
   xml:space="preserve"
   id="svg1"
   sodipodi:docname="georgetown.svg"
   inkscape:version="1.4.3 (0d15f75, 2025-12-25)"
   xmlns:inkscape="http://www.inkscape.org/namespaces/inkscape"
   xmlns:sodipodi="http://sodipodi.sourceforge.net/DTD/sodipodi-0.dtd"
   xmlns="http://www.w3.org/2000/svg"
   xmlns:svg="http://www.w3.org/2000/svg"><defs
   id="defs1" /><sodipodi:namedview
   id="namedview1"
   pagecolor="#ffffff"
   bordercolor="#000000"
   borderopacity="0.25"
   inkscape:showpageshadow="2"
   inkscape:pageopacity="0.0"
   inkscape:pagecheckerboard="0"
   inkscape:deskcolor="#d1d1d1"
   inkscape:zoom="4.245"
   inkscape:cx="131.68433"
   inkscape:cy="64.193168"
   inkscape:window-width="2648"
   inkscape:window-height="1426"
   inkscape:window-x="0"
   inkscape:window-y="0"
   inkscape:window-maximized="1"
   inkscape:current-layer="svg1" />
      <title
   id="title1">Georgetown University</title>
      <path
   fill-rule="evenodd"
   clip-rule="evenodd"
   fill="#FFFFFF"
   d="m 19.5,30.7 c -0.3,1.3 -1.1,3.6 -1.6,4.7 -1,2.1 -3.8,4.7 -6.8,4.7 -3.6,0 -5,-1.8 -5,-3.7 0,-1.4 0.7,-2.4 2.1,-2.4 1.4,0 1.7,1.2 1.7,1.6 0,0.5 -0.2,1.1 -0.4,1.3 -0.2,0.2 -0.2,0.4 -0.2,0.7 0,0.8 0.9,1.2 1.7,1.2 2,0 3.1,-1.6 3.8,-4.3 0.5,-1.8 1.2,-4.9 2.6,-10.3 L 17.2,24.1 C 16.7,24.8 14.4,28 9.1,28 3.7,28 0,24.2 0,17.4 0,12.4 2.3,8.1 5.2,5.1 c 2.2,-2.2 5.6,-4.6 11,-4.6 4.1,0 6.1,1.3 6.9,2 0.7,0.4 1,0.5 1.2,0.5 0.5,0 0.7,-0.4 0.9,-1.3 0,-0.2 0.2,-0.2 0.4,-0.2 l 0.6,0.2 c 0.2,0 0.3,0.1 0.2,0.3 l -2.2,7.9 c -0.1,0.2 -0.2,0.3 -0.4,0.2 L 23.2,10 C 23,10 22.9,9.8 22.9,9.6 23.6,6.2 21.6,2.1 16.6,2.1 14.1,2.1 11.3,3 8.5,6.6 6.2,9.5 4.9,13.7 4.9,18.4 c 0,6.4 4,7.4 5.7,7.4 4.7,0 7,-4 7.1,-6.3 0.1,-1.5 -0.3,-1.8 -1.4,-1.8 h -1.4 c -0.3,0 -0.4,-0.1 -0.3,-0.4 l 0.2,-0.9 c 0,-0.2 0.1,-0.3 0.4,-0.3 0.6,0 2,0.1 5.4,0.1 2.7,0 3.6,-0.1 4.1,-0.1 0.3,0 0.4,0.1 0.4,0.3 v 1 c 0,0.2 -0.1,0.3 -0.4,0.3 h -0.8 c -0.7,0 -1.3,0.3 -1.8,2.4 z M 49.6,20.3 c -0.2,-0.2 -0.4,-0.1 -0.5,0.1 -0.6,0.7 -2.7,3.4 -3.6,4.1 -1,0.9 -2.1,1.5 -3.4,1.5 h -8.8 l 3.8,-11.9 h 2 c 2.8,0 4.3,0.4 4.3,3.2 0,0.2 0,0.3 0.2,0.4 h 0.7 c 0.2,0 0.2,0 0.3,-0.2 0.2,-1.5 1.4,-6.3 2,-7.8 0.1,-0.1 0,-0.2 -0.2,-0.2 L 45.7,9.3 c -0.2,0 -0.2,0.1 -0.3,0.2 -1.4,3.1 -2.9,3.3 -4.6,3.3 H 37.4 L 40.7,2.7 h 6.1 c 0.2,0 0.5,0.1 0.7,0.3 l 4,4.6 c 0.2,0.2 0.3,0.3 0.5,0.2 L 52.5,7.6 C 52.7,7.4 52.7,7.4 52.7,7.2 L 51.5,2 C 51.4,1.2 51.4,1 50.7,1 c -0.4,0 -1.4,0 -2.9,0.1 -1.6,0 -3.7,0 -6.5,0 h -2.8 c -0.9,0 -2.2,0 -3.4,-0.1 -1.1,0 -2,0 -2.3,0 -0.3,0 -0.4,0.1 -0.5,0.3 l -0.2,0.9 c -0.1,0.2 0,0.4 0.2,0.4 h 1.3 c 1.2,0 2.6,0.5 1.9,2.7 l -6,18.6 C 29.1,25.2 28.3,26 26.8,26 h -1.3 c -0.2,0 -0.2,0.1 -0.3,0.2 l -0.2,1 c 0,0.2 0,0.3 0.2,0.3 0.2,0 0.9,0 1.7,-0.1 0.9,0 2,0 3.2,0 h 5.1 c 2.7,0 5.5,0 7.7,0 2.2,0 3.8,0.1 4.1,0.1 0.5,0 0.7,-0.1 0.9,-0.7 l 2,-5.7 c 0.1,-0.3 0,-0.4 -0.1,-0.4 z M 80,12 C 80,4.8 75.6,0.6 69.4,0.6 61,0.6 55.1,8.2 55.1,16.4 c 0,3.5 1,6.7 3.4,9 2.4,2.3 5.5,2.6 7,2.6 C 74.4,28 80,19.8 80,12 Z M 64.6,5.3 C 66,3.7 67.9,2.4 70.2,2.4 73.7,2.4 75.7,5 75.7,8.9 75.6,17.4 70.5,26.1 64.8,26.1 61.6,26.1 59,23.8 59,19 59.1,14.7 61.4,8.9 64.6,5.3 Z m 25.9,9.4 c 1.1,0 2.8,-0.2 3.7,1.9 0.5,0.9 3.9,8.6 4.5,9.5 0.5,0.9 0.7,1.3 1.1,1.3 0.6,0 1.3,-0.1 3.6,-0.1 2.1,0 2.7,0.1 3.1,0.1 0.2,0 0.3,-0.2 0.4,-0.4 l 0.1,-0.8 c 0.1,-0.2 0,-0.4 -0.2,-0.4 h -1 c -1.4,0 -2.3,-0.6 -3.4,-2.3 -0.7,-1.1 -3.3,-6.6 -3.6,-7 -0.4,-0.8 -1,-2 -2.3,-2.3 V 14 c 5.1,-0.5 9.2,-3.7 9.2,-7.5 0,-5.4 -5.9,-5.7 -9.2,-5.7 -1.1,0 -5.2,0.1 -9.2,0.1 -0.4,0 -0.5,0.1 -0.5,0.3 L 86.6,2 c -0.1,0.2 0,0.3 0.3,0.3 h 1.3 c 1.3,0 1.6,0.7 1.2,2 l -6.3,19.8 c -0.3,1 -1,1.8 -2,1.8 h -1 c -0.3,0 -0.4,0.1 -0.4,0.3 l -0.2,0.9 c -0.1,0.2 0,0.4 0.2,0.4 0.5,0 2,-0.1 4.7,-0.1 3.4,0 5.1,0.1 5.6,0.1 0.2,0 0.4,-0.1 0.5,-0.3 l 0.1,-0.9 c 0.1,-0.2 0,-0.3 -0.2,-0.3 h -1.6 c -1.1,0 -1.5,-0.7 -0.9,-2.8 z M 94.3,2.5 c 0.5,-0.1 0.9,-0.1 1.6,-0.1 3.8,0 5,2.5 5,4.2 0,2.8 -1.8,5 -3.8,5.9 -2.7,1.1 -4.7,0.9 -6.3,0.9 z M 125,23.9 c -0.2,0.6 -0.4,1.2 -0.8,1.4 -0.5,0.4 -1.9,0.9 -3.8,0.9 -3,0 -6.6,-2.5 -6.6,-8.5 0,-8.3 5.2,-15.6 11.2,-15.6 5,0 6.7,4.1 6.2,7.5 -0.1,0.3 0,0.5 0.2,0.5 h 0.8 c 0.2,0.1 0.3,0 0.4,-0.2 l 2.3,-7.8 c 0,-0.2 -0.1,-0.3 -0.2,-0.3 l -0.6,-0.2 c -0.2,-0.1 -0.4,0 -0.4,0.2 -0.4,0.8 -0.6,1.2 -1.1,1.2 -0.2,0 -0.5,-0.1 -0.9,-0.5 -0.8,-0.6 -3,-2 -6.3,-2 -8.8,0 -16.4,7.3 -16.4,16.8 0,5.7 4.4,10.6 11.7,10.6 3.4,0 6.7,-1.3 7.8,-1.8 0.5,-0.2 0.7,-0.4 0.8,-0.9 l 1.3,-6 c 0.2,-1 0.9,-1.3 1.9,-1.3 h 0.6 c 0.2,0 0.4,-0.1 0.4,-0.3 l 0.1,-0.8 c 0,-0.3 -0.1,-0.5 -0.3,-0.5 -0.5,0 -1.5,0.1 -4.6,0.1 -3.2,0 -4.5,-0.1 -5.2,-0.1 -0.2,0 -0.4,0.1 -0.4,0.3 l -0.2,0.8 c 0,0.2 0,0.4 0.4,0.4 h 1.3 c 1.1,0 1.7,0.3 1.4,1.9 z m 32.7,-3.6 c -0.2,-0.2 -0.4,-0.1 -0.5,0.1 -0.6,0.7 -2.7,3.4 -3.6,4.1 -1,0.9 -2.1,1.5 -3.4,1.5 h -8.8 l 3.8,-11.9 h 2 c 2.8,0 4.3,0.4 4.3,3.2 0,0.2 0,0.3 0.2,0.4 h 0.7 c 0.2,0 0.2,0 0.3,-0.2 0.2,-1.5 1.4,-6.3 2,-7.8 0.1,-0.1 0,-0.2 -0.2,-0.2 l -0.7,-0.2 c -0.2,0 -0.2,0.1 -0.3,0.2 -1.4,3.1 -2.9,3.3 -4.6,3.3 h -3.4 l 3.3,-10.1 h 6.1 c 0.2,0 0.5,0.1 0.7,0.3 l 4,4.6 c 0.2,0.2 0.3,0.3 0.5,0.2 l 0.5,-0.2 c 0.2,-0.2 0.2,-0.2 0.2,-0.4 L 159.6,2 c -0.2,-0.6 -0.2,-0.8 -0.9,-0.8 -0.4,0 -1.4,0 -2.9,0.1 -1.6,0 -3.7,0 -6.5,0 h -2.8 c -0.9,0 -2.2,0 -3.4,-0.1 -1.1,0 -2,0 -2.3,0 -0.3,0 -0.4,0.1 -0.5,0.3 l -0.2,0.9 c -0.1,0.2 0,0.4 0.2,0.4 h 1.3 c 1.2,0 2.6,0.5 1.9,2.7 l -6,18.6 c -0.4,1.3 -1.2,2.1 -2.7,2.1 h -1.3 c -0.2,0 -0.2,0.1 -0.3,0.2 l -0.2,1 c 0,0.2 0,0.3 0.2,0.3 0.2,0 0.9,0 1.7,-0.1 0.9,0 2,0 3.2,0 h 5.1 c 2.7,0 5.5,0 7.7,0 2.2,0 3.8,0.1 4.1,0.1 0.5,0 0.7,-0.1 0.9,-0.7 l 2,-5.7 c 0.1,-0.3 0,-0.4 -0.1,-0.4 z M 173.2,1.2 c -4.1,0 -6,-0.3 -6.7,-0.5 -0.3,-0.2 -0.5,-0.3 -0.6,-0.3 -0.2,0 -0.3,0.2 -0.4,0.4 -0.1,0.2 -2.5,5.7 -3,6.6 -0.1,0.2 -0.1,0.3 0.1,0.4 l 0.6,0.4 c 0.2,0 0.3,0 0.5,-0.2 0.9,-1.1 3,-3.4 4.3,-4.4 0.9,-0.7 2.6,-0.9 6.2,-0.9 h 1 l -6,19.3 c -0.9,2.9 -1.6,4 -3.8,4 h -1 c -0.3,0 -0.4,0.1 -0.5,0.3 l -0.1,0.9 c 0,0.2 0.1,0.4 0.4,0.4 0.4,0 2.5,-0.1 6.3,-0.1 3.7,0 5.2,0.1 5.8,0.1 0.3,0 0.4,-0.1 0.5,-0.4 l 0.2,-0.8 c 0,-0.2 0,-0.4 -0.2,-0.4 h -1.7 c -2,0 -2.4,-0.9 -1.6,-3.3 l 6.2,-20 h 0.8 c 1.8,0 4.6,0.4 5.5,1 0.5,1 1.3,3.4 1.6,4.7 0.2,0.5 0.3,0.6 0.5,0.6 l 0.6,-0.1 c 0.2,0 0.3,-0.1 0.3,-0.4 -0.1,-1.6 0.3,-7.3 0.4,-7.9 0,-0.2 -0.2,-0.3 -0.3,-0.3 -0.2,0 -0.2,0.1 -0.4,0.2 -0.7,0.4 -2.1,0.7 -5.6,0.7 0,0 -9.9,0 -9.9,0 z M 214.3,12 c 0,-7.2 -4.4,-11.4 -10.6,-11.4 -8.3,0 -14.2,7.7 -14.2,15.8 0,3.5 1,6.7 3.4,9 2.4,2.3 5.5,2.6 7,2.6 8.9,0 14.4,-8.2 14.4,-16 z M 199,5.3 c 1.4,-1.6 3.3,-2.9 5.6,-2.9 3.5,0 5.5,2.6 5.5,6.5 -0.1,8.5 -5.2,17.2 -10.9,17.2 -3.2,0 -5.8,-2.3 -5.8,-7.1 0,-4.3 2.4,-10.1 5.6,-13.7 z m 26.2,-0.6 c 0.3,-1.6 0.8,-2.1 2.1,-2.1 h 0.6 c 0.3,0 0.4,-0.2 0.4,-0.3 l 0.2,-0.9 c 0.1,-0.3 0,-0.4 -0.4,-0.4 -0.5,0 -2,0.1 -4.4,0.1 -2.6,0.1 -4.2,-0.1 -4.6,-0.1 -0.3,0 -0.4,0.1 -0.5,0.3 l -0.1,0.9 c 0,0.3 0,0.4 0.4,0.4 h 0.9 c 0.9,0 1,0.7 0.9,2 l -2.8,21.9 c -0.2,1.1 0,1.6 0.5,1.6 0.6,0 1,-0.5 1.5,-1 1.4,-1.7 12,-16.4 12.4,-16.9 0.3,-0.4 0.6,-0.4 0.5,0.1 l -1.1,16.4 c -0.1,0.9 0.1,1.4 0.7,1.4 0.6,0 1.1,-0.6 1.6,-1.3 1.7,-2.1 6.8,-9.6 7.9,-11.4 0.9,-1.6 6.8,-11.3 7.2,-11.8 0.6,-0.8 1.3,-1.1 2,-1.1 h 0.7 c 0.2,0 0.2,-0.1 0.3,-0.3 l 0.2,-1 c 0,-0.2 -0.1,-0.3 -0.4,-0.3 -0.5,0 -1.6,0.1 -3.9,0.1 -2,0 -3,-0.1 -3.5,-0.1 -0.2,0 -0.4,0.1 -0.4,0.4 l -0.2,0.8 c -0.1,0.3 0.1,0.4 0.3,0.4 h 0.6 c 1.2,0 1.3,1 0.9,2 -0.4,1.1 -2.1,4.7 -4,7.9 -0.8,1.3 -4.6,7.7 -5.4,8.5 -0.4,0.5 -0.6,0.4 -0.5,-0.3 l 2,-16.3 c 0.2,-1.4 0.5,-1.8 1.3,-1.8 h 0.6 c 0.3,0 0.4,-0.1 0.5,-0.3 l 0.1,-0.9 c 0,-0.2 0,-0.3 -0.4,-0.3 -0.5,0 -1.5,0.1 -3.8,0.1 -2.4,0 -3.4,-0.1 -3.8,-0.1 -0.3,0 -0.4,0.1 -0.5,0.2 l -0.2,1.1 c 0,0.2 0.1,0.3 0.3,0.3 h 0.5 c 0.7,0 1,0.5 1,1.3 0,0.8 -0.5,2.4 -1.4,3.8 -0.2,0.2 -8.8,12.8 -9.1,13 -0.4,0.5 -0.7,0.3 -0.6,-0.2 z m 19.2,18.8 c 0,3.2 2.7,4.9 5.5,4.9 5.7,0 9.2,-4.4 11.3,-8 2,-3.4 3.7,-8.5 4.6,-13.5 0.1,-0.6 0.3,-0.6 0.4,-0.2 1.9,7.7 5.5,16.4 9.9,22.2 2.3,3.1 7.4,9.4 15.4,9.4 4.5,0 6.6,-2.2 7.2,-2.9 0.7,-0.7 1.2,-1.9 1.2,-2.4 0,-0.6 -0.3,-1.3 -1.1,-1.3 -0.8,0 -1.3,0.8 -1.7,2.5 -0.3,1.3 -1.7,2.2 -3.7,2.2 -6.8,0 -12.5,-7.2 -14.5,-10.6 -0.4,-0.7 -1.1,-1.5 -0.4,-4.3 2.5,-11.2 5.6,-15.4 8.3,-17.3 1.3,-0.9 2,-1.1 2.8,-1.1 0.5,0 1.2,0.4 1.4,0.9 0.3,0.5 0.9,1.1 1.7,1.1 1,0 1.9,-0.9 1.9,-2 0,-1.3 -1.1,-2.7 -3.4,-2.7 -1.6,0 -3.5,0.4 -5.5,2 -4.3,3.3 -6.9,10.9 -8.6,18.6 -0.2,0.7 -0.4,1.1 -0.6,0.6 -2.1,-3.4 -5.8,-13.4 -7.1,-19.4 -0.2,-0.6 -0.4,-0.9 -1.1,-0.9 -7,0 -11,-0.3 -13.8,1.7 -1.8,1.3 -2.7,3.4 -2.7,5.4 0,1.9 1.2,3.4 2.5,3.4 1.2,0 2,-0.8 2,-1.7 0,-0.9 -0.5,-1.6 -1.8,-1.8 -0.8,-0.2 -1.1,-1.1 -1.1,-1.6 0,-0.9 1.5,-2 3.1,-2.5 2.2,-0.7 4.5,-0.7 6.9,-0.7 0.9,0 1.3,0.3 1.3,1.2 0,3.9 -3.1,12.4 -5.9,16.3 -1.7,2.3 -4.9,5.3 -8.6,5.3 -2.2,0 -2.8,-0.9 -2.6,-1.6 0.2,-0.9 1.3,-1.4 1.3,-2.5 0,-1.3 -0.9,-1.9 -1.9,-1.9 -1.3,0 -2.6,1.1 -2.6,3.2 z M 54.1,41.3 c 0.6,-2 1.4,-3.1 2.7,-3.1 h 0.6 c 0.3,0 0.4,-0.2 0.4,-0.3 L 58,37.1 c 0.1,-0.3 0,-0.5 -0.4,-0.5 -0.4,0 -1.3,0.1 -3.5,0.1 -2.5,0 -4,-0.1 -4.5,-0.1 -0.4,0 -0.5,0.2 -0.5,0.4 L 49,37.9 c 0,0.2 0,0.3 0.4,0.3 h 1.3 c 1.3,0 1.7,0.9 0.9,3.6 l -2.8,10 c -1.3,4.3 -2.6,6.4 -4.4,7.9 -1.3,1.1 -3.3,1.7 -5.1,1.7 -1.2,0 -5.3,-0.5 -5.3,-5.2 0,-1.7 0.9,-4.6 1.2,-5.4 L 38.4,40.3 C 39,38.4 40,38.2 40.7,38.2 h 1.1 c 0.2,0 0.4,-0.2 0.4,-0.3 l 0.2,-0.8 c 0,-0.3 -0.1,-0.5 -0.4,-0.5 -0.4,0 -1.7,0.1 -4.9,0.1 -3.6,0 -4.9,-0.1 -5.4,-0.1 -0.4,0 -0.5,0.1 -0.5,0.3 L 31,37.8 c -0.1,0.2 0.1,0.3 0.2,0.3 h 1.4 c 1.1,0 1.6,0.6 1.1,2.4 l -3.4,10.8 c -0.2,0.9 -0.8,3.3 -0.8,4.9 0,4.8 3.8,7.2 8.8,7.2 7.2,0 10.3,-4.6 12.4,-11.5 z m 20.2,20.9 c 0.2,0.5 0.6,0.8 1,0.8 0.2,-0.1 0.5,-0.4 0.8,-1 l 7.2,-20.6 c 0.8,-2.2 1.6,-3.2 2.5,-3.2 h 1 c 0.2,0 0.3,-0.1 0.3,-0.3 l 0.2,-0.7 c 0.1,-0.3 0,-0.5 -0.4,-0.5 -0.5,0 -1.3,0.1 -3.4,0.1 -2.7,0 -4,-0.1 -4.5,-0.1 -0.2,0 -0.3,0.2 -0.4,0.3 l -0.1,0.9 c -0.1,0.3 0,0.4 0.4,0.4 h 1.2 c 1.3,0 1.6,1.3 0.6,4.4 l -4.1,12.7 c -0.3,0.9 -0.5,1 -0.8,0.5 L 67.1,37.8 c -0.2,-0.5 -0.5,-1 -1.2,-1 -4.6,0 -6.2,-0.1 -6.7,-0.1 -0.3,0 -0.4,0.2 -0.5,0.4 l -0.2,0.7 c -0.1,0.3 0,0.5 0.3,0.5 h 1.5 c 1.6,0 2.5,1.1 1.7,3.4 l -4.8,15.1 c -1.2,3.5 -2.1,4.8 -3.9,4.8 h -0.9 c -0.2,0 -0.3,0.2 -0.4,0.3 l -0.1,0.8 c 0,0.3 0,0.4 0.3,0.4 0.5,0 1.7,-0.1 4.5,-0.1 2.7,0 4.3,0.1 4.7,0.1 0.4,0 0.4,-0.1 0.5,-0.4 l 0.2,-0.8 c 0,-0.2 -0.1,-0.4 -0.4,-0.4 h -1.5 c -1.6,0 -1.8,-1.8 -0.5,-6.3 L 63.6,42.1 C 63.7,41.6 64,41.6 64.2,42 Z m 12.8,-3.5 c -0.5,2 -0.8,2.8 -3.1,2.8 h -1.5 c -0.2,0 -0.3,0.1 -0.3,0.3 L 82,62.7 c 0,0.2 0.1,0.4 0.3,0.4 0.5,0 2.5,-0.1 5.8,-0.1 4,0 5.8,0.1 6.3,0.1 0.4,0 0.4,-0.1 0.5,-0.4 L 95,61.9 c 0.1,-0.2 0,-0.4 -0.2,-0.4 h -1.4 c -1.6,0 -2.2,-0.8 -1.7,-2.7 l 4.9,-18 c 0.6,-2.2 1.5,-2.6 3.1,-2.6 h 1 c 0.3,0 0.4,-0.2 0.4,-0.3 l 0.2,-0.8 c 0.1,-0.3 -0.1,-0.5 -0.5,-0.5 -0.5,0 -2.2,0.1 -5.6,0.1 -3.1,0 -5.2,-0.1 -5.7,-0.1 -0.3,0 -0.5,0.1 -0.5,0.2 l -0.2,1 c 0,0.2 0.1,0.3 0.4,0.3 H 91 c 1,0 1.6,0.6 1.1,2.6 z m 20.5,-2.9 c -0.5,0.7 -1,0.6 -0.9,-0.4 l 2.7,-15.7 c 0.2,-1.1 0.9,-1.6 2.2,-1.6 h 1.1 c 0.3,0 0.4,-0.1 0.4,-0.3 l 0.1,-0.9 c 0.1,-0.3 0,-0.4 -0.4,-0.4 -0.5,0 -2.1,0.1 -4.9,0.1 -3.4,0 -5,-0.1 -5.6,-0.1 -0.3,0 -0.3,0.1 -0.4,0.4 l -0.2,0.8 c -0.1,0.3 0.1,0.4 0.4,0.4 h 1.3 c 1.3,0 1.6,0.9 1.5,2.1 l -3.1,22 c -0.2,0.9 -0.1,1.5 0.5,1.5 0.5,0 1,-0.4 1.3,-0.7 l 16.7,-21 c 1.5,-1.9 3.5,-3.9 4.9,-3.9 h 0.9 c 0.2,0 0.3,-0.2 0.4,-0.4 l 0.1,-0.8 c 0,-0.2 0,-0.4 -0.4,-0.4 -0.5,0 -1.5,0.1 -3.8,0.1 -2.1,0 -3.4,-0.1 -4,-0.1 -0.4,0 -0.5,0.1 -0.5,0.3 l -0.2,0.9 c 0,0.2 0,0.4 0.4,0.4 h 0.8 c 1.1,0 0.9,1.4 -0.5,3.2 z m 36.9,0.1 c -0.2,-0.2 -0.4,-0.1 -0.5,0.1 -0.6,0.7 -2.7,3.4 -3.6,4.1 -1,0.9 -2.1,1.5 -3.4,1.5 h -8.8 L 132,49.7 h 2 c 2.8,0 4.3,0.4 4.3,3.2 0,0.2 0,0.3 0.2,0.4 h 0.7 c 0.2,0 0.2,0 0.3,-0.2 0.2,-1.5 1.4,-6.3 2,-7.8 0.1,-0.1 0,-0.2 -0.2,-0.2 l -0.7,-0.2 c -0.2,0 -0.2,0.1 -0.3,0.2 -1.4,3.1 -2.9,3.3 -4.6,3.3 h -3.4 l 3.3,-10.1 h 6.1 c 0.2,0 0.5,0.1 0.7,0.3 l 4,4.6 c 0.2,0.2 0.3,0.3 0.5,0.2 l 0.5,-0.2 c 0.2,-0.2 0.2,-0.2 0.2,-0.4 l -1.2,-5.2 c -0.2,-0.6 -0.2,-0.8 -0.9,-0.8 -0.4,0 -1.4,0 -2.9,0.1 -1.6,0 -3.7,0 -6.5,0 h -2.8 c -0.9,0 -2.2,0 -3.4,-0.1 -1.1,0 -2,0 -2.3,0 -0.3,0 -0.4,0.1 -0.5,0.3 l -0.2,0.9 c -0.1,0.2 0,0.4 0.2,0.4 h 1.3 c 1.2,0 2.6,0.5 1.9,2.7 l -6,18.6 c -0.4,1.3 -1.2,2.1 -2.7,2.1 h -1.3 c -0.2,0 -0.2,0.1 -0.3,0.2 l -0.2,1 c 0,0.2 0,0.3 0.2,0.3 0.2,0 0.9,0 1.7,-0.1 0.9,0 2,0 3.2,0 h 5.1 c 2.7,0 5.5,0 7.7,0 2.2,0 3.8,0.1 4.1,0.1 0.5,0 0.7,-0.1 0.9,-0.7 l 2,-5.7 c 0.1,-0.3 0,-0.4 -0.1,-0.4 z m 12.3,-5.6 c 1.1,0 2.8,-0.2 3.7,1.9 0.5,0.9 3.9,8.6 4.5,9.5 0.5,0.9 0.7,1.3 1.1,1.3 0.6,0 1.3,-0.1 3.6,-0.1 2.1,0 2.7,0.1 3.1,0.1 0.2,0 0.3,-0.2 0.4,-0.4 l 0.1,-0.8 c 0.1,-0.2 0,-0.4 -0.2,-0.4 h -1 c -1.4,0 -2.3,-0.6 -3.4,-2.3 -0.7,-1.1 -3.3,-6.6 -3.6,-7 -0.4,-0.8 -1,-2 -2.3,-2.3 v -0.2 c 5.1,-0.5 9.2,-3.7 9.2,-7.5 0,-5.4 -5.9,-5.7 -9.2,-5.7 -1.1,0 -5.2,0.1 -9.2,0.1 -0.4,0 -0.5,0.1 -0.5,0.3 l -0.2,0.8 c -0.1,0.2 0,0.3 0.3,0.3 h 1.3 c 1.3,0 1.6,0.7 1.2,2 l -6.3,19.5 c -0.3,1 -1,1.8 -2,1.8 h -1 c -0.3,0 -0.4,0.1 -0.4,0.3 l -0.2,0.9 c -0.1,0.2 0,0.4 0.2,0.4 0.5,0 2,-0.1 4.7,-0.1 3.4,0 5.1,0.1 5.6,0.1 0.2,0 0.4,-0.1 0.5,-0.3 l 0.1,-0.9 c 0.1,-0.2 0,-0.3 -0.2,-0.3 h -1.6 c -1.1,0 -1.5,-0.7 -0.9,-2.8 z M 160.6,38 c 0.5,-0.1 0.9,-0.1 1.6,-0.1 3.8,0 5,2.5 5,4.2 0,2.8 -1.8,5 -3.8,5.9 -2.7,1.1 -4.7,0.9 -6.3,0.9 z m 33.3,-1.1 c 0,-0.2 -0.1,-0.2 -0.3,-0.2 l -0.5,-0.1 c -0.3,0 -0.4,0 -0.4,0.2 -0.2,0.8 -0.4,1.3 -0.6,1.3 -0.2,0 -0.4,-0.1 -0.5,-0.2 -0.6,-0.5 -2.5,-1.8 -4.6,-1.8 -5.1,0 -7.3,4.1 -7.3,6.9 0,4 2,6.1 4.5,8.7 1.7,1.9 3.7,3.4 3.7,5.9 0,2.2 -1.7,4.1 -4.2,4.1 -2.4,0 -5.5,-2.7 -4.4,-8.3 0,-0.2 -0.1,-0.3 -0.2,-0.4 l -0.6,-0.2 c -0.2,0 -0.3,0 -0.4,0.2 l -2.9,8.5 c -0.1,0.3 -0.1,0.3 0.2,0.4 l 0.5,0.2 c 0.2,0.1 0.3,0 0.4,-0.2 0.3,-0.5 0.7,-1.2 0.9,-1.5 0.2,-0.2 0.6,-0.3 1,0.1 1.3,1.4 3.1,2.9 5.6,2.9 4.1,0 7.7,-2.7 7.7,-7.7 0,-4.3 -2.6,-6.5 -4.4,-8.3 -1.8,-1.8 -3.5,-3.1 -3.5,-5.8 0,-1.7 1.3,-3.8 3.5,-3.8 4,0 4.5,4.7 4.2,6.3 0,0.2 0.1,0.4 0.4,0.4 h 0.7 c 0.2,0 0.2,-0.1 0.3,-0.2 z m 3.2,21.8 c -0.5,2 -0.8,2.8 -3.1,2.8 h -1.5 c -0.2,0 -0.3,0.1 -0.3,0.3 l -0.2,0.9 c 0,0.2 0.1,0.4 0.3,0.4 0.5,0 2.5,-0.1 5.8,-0.1 4,0 5.8,0.1 6.3,0.1 0.4,0 0.4,-0.1 0.5,-0.4 l 0.1,-0.8 c 0.1,-0.2 0,-0.4 -0.2,-0.4 h -1.4 c -1.6,0 -2.2,-0.8 -1.7,-2.7 l 4.9,-18 c 0.6,-2.2 1.5,-2.6 3.1,-2.6 h 1 c 0.3,0 0.4,-0.2 0.4,-0.3 l 0.2,-0.8 c 0.1,-0.3 -0.1,-0.5 -0.5,-0.5 -0.5,0 -2.2,0.1 -5.6,0.1 -3.1,0 -5.2,-0.1 -5.7,-0.1 -0.3,0 -0.5,0.1 -0.5,0.2 l -0.2,1 c 0,0.2 0.1,0.3 0.4,0.3 h 1.8 c 1,0 1.6,0.6 1.1,2.6 z m 24.3,-22 c -4.1,0 -5.9,-0.3 -6.7,-0.5 -0.3,-0.2 -0.5,-0.3 -0.6,-0.3 -0.2,0 -0.3,0.2 -0.4,0.4 -0.1,0.2 -2.5,5.7 -3,6.6 -0.1,0.2 -0.1,0.3 0.1,0.4 l 0.6,0.4 c 0.2,0 0.3,0 0.5,-0.2 0.9,-1.1 3,-3.4 4.3,-4.4 0.9,-0.7 2.6,-0.9 6.2,-0.9 h 1 l -6,19.3 c -0.9,2.9 -1.6,4 -3.8,4 h -1 c -0.3,0 -0.4,0.1 -0.5,0.3 l -0.1,0.9 c 0,0.2 0.1,0.4 0.4,0.4 0.4,0 2.5,-0.1 6.3,-0.1 3.7,0 5.2,0.1 5.8,0.1 0.3,0 0.4,-0.1 0.5,-0.4 l 0.2,-0.8 c 0,-0.2 0,-0.4 -0.2,-0.4 h -1.6 c -2,0 -2.4,-0.9 -1.6,-3.3 l 6.2,-20 h 0.8 c 1.8,0 4.6,0.4 5.5,1 0.5,1 1.3,3.4 1.6,4.7 0.2,0.5 0.3,0.6 0.5,0.6 l 0.6,-0.1 c 0.2,0 0.3,-0.1 0.3,-0.4 -0.1,-1.6 0.3,-7.3 0.4,-7.9 0,-0.2 -0.2,-0.3 -0.3,-0.3 -0.2,0 -0.2,0.1 -0.4,0.2 -0.7,0.4 -2.1,0.7 -5.6,0.7 z M 250,55 c 0.4,-1.7 0.8,-2.5 1.3,-3.4 0.5,-0.9 7.7,-10.9 8.3,-11.7 0.8,-1.1 1.6,-1.7 2.9,-1.7 h 0.7 c 0.2,0 0.3,-0.1 0.3,-0.4 l 0.2,-0.8 c 0,-0.2 -0.1,-0.4 -0.4,-0.4 -0.5,0 -1.7,0.1 -4.2,0.1 -2.2,0 -3.7,-0.1 -4.2,-0.1 -0.4,0 -0.5,0.1 -0.5,0.3 l -0.1,0.9 c -0.1,0.2 0,0.4 0.2,0.4 h 0.9 c 1.3,0 1.8,0.6 1.3,2.1 -0.4,1.2 -5.9,9.4 -6.5,10.3 -0.3,0.5 -0.6,0.5 -0.8,-0.1 L 246.3,40 c -0.2,-0.8 -0.2,-1.7 1,-1.7 h 1 c 0.2,0 0.3,-0.1 0.4,-0.3 l 0.1,-0.9 c 0,-0.2 -0.1,-0.3 -0.4,-0.3 -0.5,0 -1.8,0.1 -5.2,0.1 -3.1,0 -4.2,-0.1 -4.7,-0.1 -0.2,0 -0.3,0.1 -0.4,0.3 l -0.2,0.9 c 0,0.2 0.1,0.3 0.3,0.3 h 0.9 c 1.3,0 2.1,0.5 2.4,1.5 l 4.1,12 c 0.2,0.5 0.2,1.5 0.1,2 l -1.3,5.8 c -0.2,1.1 -0.8,2 -2.6,2 h -0.9 c -0.3,0 -0.4,0.2 -0.4,0.3 l -0.2,0.9 c 0,0.3 0.1,0.4 0.3,0.4 0.5,0 1.6,-0.1 5.2,-0.1 3.1,0 4.4,0.1 5,0.1 0.3,0 0.4,-0.2 0.4,-0.4 l 0.2,-0.9 c 0,-0.2 -0.1,-0.3 -0.3,-0.3 h -0.9 c -1.3,0 -1.8,-0.2 -1.4,-2.2 z"
   id="path1"
   style="display:inline;fill:#041e42;fill-opacity:1" />
    </svg>
