<?xml version="1.0" encoding="UTF-8" standalone="no"?>
<!-- Created with Inkscape (http://www.inkscape.org/) -->

<svg
   version="1.1"
   id="svg1"
   width="565.81335"
   height="94.09333"
   viewBox="0 0 565.81335 94.09333"
   sodipodi:docname="ucdavis.svg"
   inkscape:version="1.4.3 (0d15f75, 2025-12-25)"
   xmlns:inkscape="http://www.inkscape.org/namespaces/inkscape"
   xmlns:sodipodi="http://sodipodi.sourceforge.net/DTD/sodipodi-0.dtd"
   xmlns="http://www.w3.org/2000/svg"
   xmlns:svg="http://www.w3.org/2000/svg">
  <defs
     id="defs1" />
  <sodipodi:namedview
     id="namedview1"
     pagecolor="#ffffff"
     bordercolor="#000000"
     borderopacity="0.25"
     inkscape:showpageshadow="2"
     inkscape:pageopacity="0.0"
     inkscape:pagecheckerboard="0"
     inkscape:deskcolor="#d1d1d1"
     inkscape:zoom="2.3665047"
     inkscape:cx="282.6954"
     inkscape:cy="47.1159"
     inkscape:window-width="2648"
     inkscape:window-height="1426"
     inkscape:window-x="0"
     inkscape:window-y="0"
     inkscape:window-maximized="1"
     inkscape:current-layer="g1">
    <inkscape:page
       x="0"
       y="0"
       inkscape:label="1"
       id="page1"
       width="565.81335"
       height="94.09333"
       margin="0"
       bleed="0" />
  </sodipodi:namedview>
  <g
     id="g1"
     inkscape:groupmode="layer"
     inkscape:label="1">
    <g
       id="group-R5">
      <path
         id="path2"
         d="m 3719.57,62.9023 67.95,179.7227 11.83,-10.211 c 41.72,-34.027 98.28,-62.98 151.72,-64.101 47.73,-1.114 71.09,11.601 64.73,52 -4.73,30.195 -38.81,35.5 -60.06,39.699 l -46.74,9.332 c -90.88,16.965 -167.32,73.058 -167.32,179.219 0,160.57 138.46,250.625 277.67,250.625 73.19,0 140.24,-18.625 203.09,-59.461 l -59,-159.258 c -32.37,23.308 -81.33,56.105 -143.36,58.359 -20.39,0.77 -67.03,-9.922 -52.11,-57.308 6.46,-20.161 35.38,-28.633 53.14,-32.957 l 52.69,-12.715 c 98.54,-22.938 169.83,-79 169.83,-193.649 0,-161.406 -139.28,-241.308375 -277.68,-241.308375 -80.7,0 -174.21,22.968775 -246.38,62.011675"
         style="fill:#daae06;fill-opacity:1;fill-rule:nonzero;stroke:none"
         transform="matrix(0.13333333,0,0,-0.13333333,0,94.093333)" />
      <path
         id="path3"
         d="M 3436.43,11.0078 V 688.164 h 233.03 V 11.0078 h -233.03"
         style="fill:#daae06;fill-opacity:1;fill-rule:nonzero;stroke:none"
         transform="matrix(0.13333333,0,0,-0.13333333,0,94.093333)" />
      <path
         id="path4"
         d="m 3169.14,688.164 h 242.9 L 3164,11.0078 H 2966.95 L 2719.73,688.164 h 242.05 l 103.71,-408.586 103.65,408.586"
         style="fill:#daae06;fill-opacity:1;fill-rule:nonzero;stroke:none"
         transform="matrix(0.13333333,0,0,-0.13333333,0,94.093333)" />
      <path
         id="path5"
         d="m 2497.95,492.715 v 0 c 4.32,-28.82 46.75,-236.063 46.75,-236.063 h -93.18 z M 2144.61,11.0078 h 246.33 l 18.7,85.0469 h 175.83 l 23.33,-85.0469 h 246.41 L 2624.53,688.164 H 2366.15 L 2144.61,11.0078"
         style="fill:#daae06;fill-opacity:1;fill-rule:nonzero;stroke:none"
         transform="matrix(0.13333333,0,0,-0.13333333,0,94.093333)" />
      <path
         id="path6"
         d="m 1539.7,688.164 h 238.72 c 216.67,0 382.24,-99.461 382.24,-348.324 0,-200.512 -134.99,-328.8322 -324.46,-328.8322 l -296.5,0.3711 z m 234.48,-482.707 h 15.95 c 78.16,0 136.12,46.887 136.12,135.242 0,95.149 -51.39,148.227 -137.21,148.227 h -14.86 V 205.457"
         style="fill:#daae06;fill-opacity:1;fill-rule:nonzero;stroke:none"
         transform="matrix(0.13333333,0,0,-0.13333333,0,94.093333)" />
      <path
         id="path7"
         d="M 1397.86,666.926 1410.5,555.84 c 2.98,-26.395 18,-89.688 -0.52,-81.215 -11.69,5.23 -21.26,33.945 -30.82,59.379 -4.82,12.949 -27.93,74.101 -33.96,78.609 -29.17,21.84 -101.95,46.426 -151.17,46.657 -149.34,0.562 -248.108,-109.571 -248.108,-304.985 0,-140.152 67.128,-308.3162 237.858,-308.3162 61.18,0 178.36,19.2578 210.26,106.2892 14.39,39.394 27.61,74.375 37.16,63.785 7.06,-7.789 -2.14,-39.313 -6.4,-56.289 C 1404.68,79.0547 1403.58,54.6211 1397.2,51.4766 1320.06,12.7852 1221.16,0.0117188 1134.54,0.0117188 859.254,0.0117188 764.129,160.613 764.129,321.152 c 0,278.641 171.187,393.973 436.621,383.973 67.08,-2.516 134.22,-14.453 197.11,-38.199"
         style="fill:#daae06;fill-opacity:1;fill-rule:nonzero;stroke:none"
         transform="matrix(0.13333333,0,0,-0.13333333,0,94.093333)" />
      <path
         id="path8"
         d="m 584.879,654.605 -44.051,15.364 c -14.851,13.32 3.184,17.011 3.184,17.011 0,0 63.707,-11.792 222.492,1.629 0,0 13.785,-2.722 4.207,-13.902 l -52.02,-22.289 C 684.727,637.594 684.727,646.09 684.727,608.922 L 684.453,263.828 C 684.453,-6.04297 409.871,0.0117188 356.355,0.0117188 c -25.437,0 -275.2534,0 -275.2534,216.6832812 v 365.266 c 0,63.703 6.7968,61.996 -14.3946,69.48 L 2.99219,675.332 c 0,0 -10.73047,15.285 8.45311,14.309 52.0508,-2.661 127.4567,-13.821 302.6837,-1.032 0,0 15.379,-3.75 5.269,-14.886 l -50.945,-14.887 c -40.351,-18.066 -35.015,-4.231 -36.09,-45.672 l 1.246,-360.18 c 0,-88.336 45.457,-197.6598 186.446,-197.6598 194.597,0 196.406,168.3048 196.406,205.6988 l 0.355,356.84 c 2.079,33.578 -2.164,24.004 -31.937,36.742"
         style="fill:#daae06;fill-opacity:1;fill-rule:nonzero;stroke:none"
         transform="matrix(0.13333333,0,0,-0.13333333,0,94.093333)" />
    </g>
  </g>
</svg>
