<?xml version="1.0" encoding="UTF-8" standalone="no"?>
<svg
   id="ucla-box-black"
   viewBox="0 0 252.17 82.09"
   version="1.1"
   sodipodi:docname="ucla.svg"
   inkscape:version="1.4.3 (0d15f75, 2025-12-25)"
   xmlns:inkscape="http://www.inkscape.org/namespaces/inkscape"
   xmlns:sodipodi="http://sodipodi.sourceforge.net/DTD/sodipodi-0.dtd"
   xmlns="http://www.w3.org/2000/svg"
   xmlns:svg="http://www.w3.org/2000/svg">
  <sodipodi:namedview
     id="namedview4"
     pagecolor="#ffffff"
     bordercolor="#000000"
     borderopacity="0.25"
     inkscape:showpageshadow="2"
     inkscape:pageopacity="0.0"
     inkscape:pagecheckerboard="0"
     inkscape:deskcolor="#d1d1d1"
     showgrid="false"
     inkscape:zoom="2.7900672"
     inkscape:cx="151.25084"
     inkscape:cy="106.26984"
     inkscape:window-width="2648"
     inkscape:window-height="1426"
     inkscape:window-x="0"
     inkscape:window-y="0"
     inkscape:window-maximized="1"
     inkscape:current-layer="ucla-box-black" />
  <defs
     id="defs1">
    <style
       id="style1">.cls-1{fill:#2774ae;}</style>
  </defs>
  <title
     id="title1">logo_UCLA_blue</title>
  <path
     class="cls-1"
     d="M 27.048478,55.270199 A 55.775198,55.775198 0 0 1 26.90933,48.691586 l 3.138563,-35.56007 h 11.649789 l -3.192676,35.869288 c -0.68801,7.73045 2.319135,13.311835 10.111428,13.311835 7.931442,0 12.121346,-5.635498 12.809356,-12.531059 l 3.308633,-36.673255 h 11.642058 l -3.223598,36.24808 c -1.298716,13.91481 -10.544334,24.38184 -25.510485,24.38184 -11.657519,0 -19.171517,-7.537189 -20.60165,-18.437124"
     id="path1"
     style="stroke-width:0.773045" />
  <path
     class="cls-1"
     d="m 79.051216,43.226158 c 1.54609,-17.084295 13.04127,-31.246479 32.947174,-31.246479 a 27.30395,27.30395 0 0 1 15.29856,4.429548 l -1.32963,14.108071 c -4.59189,-6.037481 -10.04959,-7.019249 -15.08211,-7.019249 -12.36872,0 -19.179247,8.603991 -20.153283,19.496196 -0.935385,10.598447 4.537774,19.225629 16.535433,19.225629 5.24124,0 10.82263,-1.54609 16.60501,-7.320736 l -1.28326,14.479133 c -5.66642,3.09218 -10.93086,4.4682 -16.23394,4.4682 -19.697191,0 -28.718626,-14.633742 -27.303954,-30.620313"
     id="path2"
     style="stroke-width:0.773045" />
  <path
     class="cls-1"
     d="m 136.59668,13.108325 h 11.59568 l -4.23629,48.315313 h 16.64366 c 1.17503,0 5.14075,-0.06184 6.18436,-0.123688 -0.0618,0.579784 -1.05907,11.16277 -1.05907,11.16277 h -34.4005 z"
     id="path3"
     style="stroke-width:0.773045" />
  <path
     class="cls-1"
     d="m 197.11838,35.263795 a 13.91481,13.91481 0 0 0 0.85808,-2.489205 h 0.18553 a 14.108071,14.108071 0 0 0 0.44063,2.512396 c 0.64163,2.705657 5.16394,17.733652 5.16394,17.733652 h -14.68785 c 0,0 7.86187,-17.362591 8.01648,-17.780035 m 2.97622,-24.876588 h -0.77305 l -31.8108,62.060053 h 12.36872 l 4.45274,-9.377036 h 22.41831 l 2.79842,9.415688 h 12.31461 z"
     id="path4"
     style="stroke-width:0.773045" />
</svg>
