<svg xmlns="http://www.w3.org/2000/svg" version="1.1" width="1080" height="1080" viewBox="0 0 1080 1080" id="svg1" inkscape:version="1.4.3 (0d15f75, 2025-12-25)" sodipodi:docname="favicon.svg" xmlns:inkscape="http://www.inkscape.org/namespaces/inkscape" xmlns:sodipodi="http://sodipodi.sourceforge.net/DTD/sodipodi-0.dtd" xmlns:svg="http://www.w3.org/2000/svg"><sodipodi:namedview id="namedview1" pagecolor="#ffffff" bordercolor="#000000" borderopacity="0.25" inkscape:showpageshadow="2" inkscape:pageopacity="0.0" inkscape:pagecheckerboard="0" inkscape:deskcolor="#d1d1d1" inkscape:document-units="px" inkscape:zoom="0.79549513" inkscape:cx="444.37733" inkscape:cy="610.31172" inkscape:window-width="2648" inkscape:window-height="1426" inkscape:window-x="0" inkscape:window-y="0" inkscape:window-maximized="1" inkscape:current-layer="layer1"></sodipodi:namedview><defs id="defs1"></defs><g inkscape:label="Layer 1" inkscape:groupmode="layer" id="layer1" style="opacity:1">
    <path id="path3" d="M 370.84712,31.927665 C 131.60173,109.3366 -10.263001,342.96181 12.354914,591.50589 0.270179,287.86437 227.91089,43.622278 530.99128,43.604465 c 452.37606,0 666.95852,546.369445 355.24751,859.158255 -24.30668,11.99744 -47.75829,18.51722 -68.24387,18.51722 -19.45244,0 -33.89927,-6.39507 -40.68626,-18.01845 -8.54163,-14.64276 -4.9611,-37.3818 10.09142,-64.01312 46.27077,-81.92468 72.52801,-230.81066 54.08205,-262.43869 -3.19755,-5.45988 -7.23234,-6.60885 -10.06469,-6.60885 -9.18292,0 -20.50342,12.13997 -34.62962,37.12352 C 723.06628,737.75544 507.8158,813.68587 339.01423,829.03227 158.99013,845.40296 143.36761,907.77723 142.79758,910.3602 l -0.60567,2.53845 1.40727,1.27366 c 51.32987,46.54691 110.23939,83.4923 173.58451,109.62469 293.15822,141.7072 651.48748,-16.7179 735.40721,-342.95596 C 1157.9672,271.13742 766.7274,-96.19657 370.84712,31.927665 Z M 327.35524,819.59998 C 490.5099,804.77017 652.5868,741.05095 740.29206,657.25585 l 0.65904,-0.63238 1.81699,-7.08091 c 23.94147,-93.95777 8.39021,-235.86973 -14.22413,-264.95932 -3.40237,-4.38214 -7.09872,-6.59992 -10.97319,-6.59992 -9.98447,0 -18.61516,14.79419 -26.38191,45.2465 C 654.13658,568.40166 466.22998,697.9777 307.32388,756.92288 172.58188,806.89889 145.78135,858.21093 140.50852,877.93949 l -3.57162,13.3958 9.09383,-10.46548 c 15.79176,-18.16095 60.35245,-50.26994 181.32451,-61.26983" style="fill:#202f90;fill-opacity:1;fill-rule:nonzero;stroke:none;stroke-width:0.0890676;stroke-opacity:1"></path>
  </g><style>@media (prefers-color-scheme: light) { :root { filter: none; } }
@media (prefers-color-scheme: dark) { :root { filter: contrast(0.625) brightness(2.5); } }
</style></svg>